<svg width="162" height="48" viewBox="0 0 162 48" fill="none" xmlns="http://www.w3.org/2000/svg">
<g clip-path="url(#clip0_562_13110)">
<path d="M149.099 -8.81406e-05H12.908C12.4115 -8.81406e-05 11.921 -8.81405e-05 11.4259 0.00231186C11.0115 0.00471186 10.6003 0.0116839 10.1819 0.0175519C9.2728 0.027034 8.36589 0.0979234 7.46899 0.229604C6.57336 0.364151 5.70578 0.617811 4.8956 0.982004C4.08641 1.34928 3.34704 1.82651 2.70429 2.3964C2.05817 2.96468 1.51958 3.62153 1.10923 4.3417C0.697744 5.06044 0.412419 5.83064 0.263109 6.62569C0.112379 7.41973 0.0312704 8.22294 0.0205099 9.02809C0.00794675 9.39601 0.00662003 9.76515 0 10.1331V37.8702C0.00662003 38.2428 0.00794675 38.6038 0.0205099 38.9765C0.0312737 39.7816 0.112383 40.5848 0.263109 41.3788C0.412007 42.1743 0.697348 42.9449 1.10923 43.664C1.51939 44.3818 2.05806 45.036 2.70429 45.6011C3.3446 46.1735 4.08445 46.6511 4.8956 47.0156C5.70577 47.3807 6.57326 47.6359 7.46899 47.7725C8.36604 47.9031 9.27286 47.9741 10.1819 47.9847C10.6003 47.9928 11.0115 47.9975 11.4259 47.9975C11.921 47.9999 12.4115 47.9999 12.908 47.9999H149.099C149.586 47.9999 150.08 47.9999 150.567 47.9975C150.979 47.9975 151.402 47.9928 151.815 47.9847C152.722 47.9746 153.627 47.9037 154.522 47.7725C155.421 47.6349 156.292 47.3798 157.106 47.0156C157.916 46.6509 158.655 46.1733 159.295 45.6011C159.94 45.0338 160.48 44.3801 160.895 43.664C161.304 42.9444 161.586 42.1738 161.733 41.3788C161.884 40.5847 161.968 39.7817 161.984 38.9765C161.989 38.6038 161.989 38.2428 161.989 37.8702C162 37.4343 162 37.0007 162 36.5577V11.4433C162 11.0038 162 10.5679 161.989 10.1331C161.989 9.76515 161.989 9.39601 161.984 9.02804C161.968 8.22282 161.884 7.4198 161.733 6.62564C161.586 5.83105 161.303 5.06092 160.895 4.34166C160.059 2.89815 158.734 1.72314 157.106 0.981896C156.292 0.618593 155.421 0.365 154.522 0.229496C153.627 0.0972352 152.722 0.0263212 151.815 0.0173839C151.402 0.0115279 150.979 0.00449586 150.567 0.00215586C150.08 -0.000244141 149.586 -0.000244141 149.099 -0.000244141V-8.81406e-05Z" fill="#A6A6A6"/>
<path d="M11.3162 46.9535C10.903 46.9535 10.4998 46.9489 10.0899 46.9407C9.24064 46.9309 8.3934 46.8655 7.55508 46.7449C6.7734 46.6258 6.01615 46.4041 5.30833 46.0873C4.607 45.7731 3.96733 45.3611 3.41382 44.8671C2.8523 44.379 2.38481 43.8128 2.02988 43.191C1.67103 42.5652 1.42269 41.8944 1.2935 41.2019C1.15399 40.4579 1.07851 39.7056 1.06771 38.9515C1.05911 38.6983 1.04785 37.8555 1.04785 37.8555V10.1291C1.04785 10.1291 1.05984 9.29919 1.06777 9.05538C1.07811 8.30244 1.15316 7.55129 1.29225 6.80843C1.42168 6.11411 1.67022 5.44136 2.02925 4.81349C2.38288 4.19214 2.84778 3.62552 3.40591 3.1356C3.96342 2.64103 4.60514 2.22692 5.30767 1.90838C6.01386 1.59257 6.76967 1.37249 7.54978 1.25551C8.39085 1.13377 9.24104 1.06795 10.0932 1.0586L11.3169 1.04395H150.684L151.922 1.05919C152.767 1.06807 153.609 1.1333 154.443 1.25434C155.231 1.37278 155.994 1.5944 156.709 1.91189C158.116 2.55384 159.261 3.56947 159.984 4.81642C160.337 5.43996 160.582 6.10721 160.709 6.79554C160.85 7.54449 160.929 8.30155 160.945 9.06066C160.949 9.40057 160.949 9.76569 160.949 10.1291C160.96 10.5791 160.96 11.0076 160.96 11.4395V36.5591C160.96 36.9952 160.96 37.4207 160.949 37.8496C160.949 38.24 160.949 38.5975 160.944 38.9655C160.928 39.7111 160.851 40.4546 160.712 41.1902C160.586 41.8876 160.339 42.5636 159.98 43.1946C159.622 43.8096 159.158 44.3709 158.602 44.8578C158.048 45.3544 157.408 45.7688 156.705 46.085C155.992 46.4043 155.23 46.6268 154.443 46.7449C153.604 46.8661 152.757 46.9316 151.908 46.9407C151.511 46.9489 151.095 46.9535 150.691 46.9535L149.221 46.9559L11.3162 46.9535Z" fill="black"/>
<path d="M39.3569 24.3605C39.3698 23.359 39.6358 22.3769 40.1303 21.5058C40.6247 20.6346 41.3314 19.9027 42.1847 19.3781C41.6427 18.6039 40.9275 17.9667 40.0961 17.5173C39.2647 17.0678 38.34 16.8184 37.3954 16.7889C35.3803 16.5773 33.4267 17.9947 32.3999 17.9947C31.3531 17.9947 29.7721 16.8099 28.0697 16.8449C26.9685 16.8805 25.8952 17.2007 24.9546 17.7744C24.0139 18.348 23.2379 19.1556 22.7022 20.1183C20.3814 24.1364 22.1125 30.0417 24.3356 33.2896C25.4479 34.88 26.7478 36.6566 28.4488 36.5936C30.1132 36.5245 30.7349 35.5322 32.744 35.5322C34.7346 35.5322 35.3178 36.5936 37.0532 36.5535C38.8393 36.5245 39.9646 34.956 41.0379 33.3506C41.837 32.2173 42.452 30.9649 42.86 29.6395C41.8223 29.2007 40.9368 28.4661 40.3139 27.5273C39.6909 26.5885 39.3581 25.4872 39.3569 24.3605Z" fill="white"/>
<path d="M36.079 14.6529C37.0528 13.4838 37.5326 11.9812 37.4164 10.4641C35.9286 10.6204 34.5543 11.3314 33.5673 12.4556C33.0847 13.0048 32.7151 13.6438 32.4796 14.3359C32.2441 15.028 32.1474 15.7598 32.1948 16.4893C32.939 16.497 33.6752 16.3357 34.348 16.0176C35.0208 15.6995 35.6127 15.2328 36.079 14.6529Z" fill="white"/>
<path d="M60.3968 32.5675H54.7167L53.3526 36.5952H50.9468L56.3269 21.6936H58.8265L64.2065 36.5952H61.7597L60.3968 32.5675ZM55.305 30.7089H59.8074L57.5878 24.1721H57.5257L55.305 30.7089Z" fill="white"/>
<path d="M75.8258 31.1635C75.8258 34.5397 74.0188 36.7088 71.2918 36.7088C70.601 36.7449 69.914 36.5858 69.3095 36.2496C68.7049 35.9135 68.2073 35.4139 67.8735 34.808H67.8219V40.1893H65.5918V25.7307H67.7504V27.5377H67.7914C68.1406 26.9347 68.6467 26.4377 69.2558 26.0995C69.865 25.7613 70.5544 25.5945 71.2508 25.617C74.0082 25.617 75.8258 27.7967 75.8258 31.1635ZM73.5336 31.1635C73.5336 28.9639 72.3969 27.5178 70.6625 27.5178C68.9586 27.5178 67.8125 28.9943 67.8125 31.1635C67.8125 33.3526 68.9586 34.8186 70.6625 34.8186C72.3969 34.8186 73.5336 33.383 73.5336 31.1635Z" fill="white"/>
<path d="M87.7833 31.1635C87.7833 34.5397 85.9763 36.7088 83.2494 36.7088C82.5586 36.7449 81.8716 36.5858 81.267 36.2496C80.6625 35.9135 80.1648 35.4138 79.831 34.808H79.7794V40.1892H77.5493V25.7307H79.7079V27.5377H79.7489C80.0981 26.9347 80.6041 26.4377 81.2133 26.0995C81.8225 25.7613 82.5119 25.5945 83.2083 25.617C85.9658 25.617 87.7833 27.7967 87.7833 31.1635ZM85.4911 31.1635C85.4911 28.9639 84.3544 27.5178 82.62 27.5178C80.9161 27.5178 79.77 28.9943 79.77 31.1635C79.77 33.3525 80.9161 34.8186 82.62 34.8186C84.3544 34.8186 85.4912 33.383 85.4912 31.1635H85.4911Z" fill="white"/>
<path d="M95.6867 32.4432C95.8519 33.9209 97.2875 34.8912 99.2492 34.8912C101.129 34.8912 102.481 33.9209 102.481 32.5884C102.481 31.4318 101.666 30.7392 99.7343 30.2646L97.8031 29.7994C95.0667 29.1384 93.7964 27.8587 93.7964 25.7822C93.7964 23.2111 96.0371 21.4451 99.2187 21.4451C102.367 21.4451 104.526 23.2111 104.599 25.7822H102.348C102.213 24.2951 100.984 23.3974 99.187 23.3974C97.3905 23.3974 96.1612 24.3056 96.1612 25.6275C96.1612 26.681 96.9464 27.3009 98.8671 27.7755L100.509 28.1786C103.566 28.9017 104.837 30.1298 104.837 32.3095C104.837 35.0974 102.616 36.8435 99.0839 36.8435C95.7792 36.8435 93.548 35.1384 93.4038 32.4431L95.6867 32.4432Z" fill="white"/>
<path d="M109.649 23.1597V25.7308H111.715V27.4968H109.649V33.4862C109.649 34.4167 110.063 34.8503 110.971 34.8503C111.217 34.846 111.461 34.8288 111.705 34.7987V36.5542C111.297 36.6305 110.882 36.665 110.466 36.6573C108.267 36.6573 107.409 35.8311 107.409 33.7241V27.4968H105.829V25.7308H107.409V23.1597H109.649Z" fill="white"/>
<path d="M112.912 31.1636C112.912 27.7452 114.925 25.5972 118.065 25.5972C121.215 25.5972 123.219 27.7452 123.219 31.1636C123.219 34.5913 121.225 36.73 118.065 36.73C114.905 36.73 112.912 34.5913 112.912 31.1636ZM120.946 31.1636C120.946 28.8187 119.872 27.4347 118.065 27.4347C116.258 27.4347 115.184 28.8292 115.184 31.1636C115.184 33.5179 116.258 34.8913 118.065 34.8913C119.872 34.8913 120.946 33.5179 120.946 31.1636H120.946Z" fill="white"/>
<path d="M125.057 25.7306H127.184V27.5798H127.236C127.38 27.0022 127.718 26.4918 128.194 26.1344C128.67 25.7769 129.254 25.5942 129.849 25.6169C130.106 25.616 130.362 25.6439 130.613 25.7001V27.786C130.289 27.6869 129.95 27.6414 129.611 27.6513C129.287 27.6381 128.964 27.6952 128.664 27.8187C128.364 27.9422 128.095 28.129 127.874 28.3665C127.653 28.604 127.487 28.8864 127.385 29.1944C127.284 29.5024 127.251 29.8287 127.287 30.1509V36.595H125.057L125.057 25.7306Z" fill="white"/>
<path d="M140.895 33.4042C140.595 35.3765 138.674 36.73 136.217 36.73C133.056 36.73 131.095 34.6124 131.095 31.2151C131.095 27.8073 133.067 25.5972 136.123 25.5972C139.129 25.5972 141.019 27.662 141.019 30.9562V31.7202H133.346V31.855C133.31 32.2548 133.361 32.6576 133.493 33.0366C133.625 33.4156 133.836 33.7622 134.113 34.0532C134.389 34.3443 134.724 34.5732 135.096 34.7248C135.468 34.8763 135.867 34.9471 136.269 34.9323C136.796 34.9817 137.324 34.8596 137.776 34.5843C138.229 34.309 138.58 33.8951 138.778 33.4042L140.895 33.4042ZM133.356 30.1616H138.788C138.808 29.8021 138.754 29.4423 138.628 29.1049C138.502 28.7674 138.308 28.4596 138.058 28.2007C137.808 27.9417 137.507 27.7373 137.174 27.6003C136.841 27.4632 136.483 27.3965 136.123 27.4042C135.76 27.402 135.4 27.4718 135.064 27.6095C134.728 27.7472 134.423 27.9501 134.165 28.2064C133.908 28.4628 133.704 28.7676 133.565 29.1031C133.426 29.4387 133.356 29.7985 133.356 30.1616V30.1616Z" fill="white"/>
<path d="M55.0258 10.4771C55.4933 10.4436 55.9625 10.5142 56.3994 10.6839C56.8363 10.8536 57.2302 11.1182 57.5525 11.4586C57.8748 11.7989 58.1175 12.2066 58.2632 12.6521C58.4089 13.0976 58.4539 13.5699 58.3949 14.0349C58.3949 16.3224 57.1586 17.6373 55.0258 17.6373H52.4395V10.4771H55.0258ZM53.5516 16.6247H54.9016C55.2356 16.6447 55.57 16.5899 55.8802 16.4644C56.1905 16.3388 56.4688 16.1457 56.695 15.899C56.9212 15.6523 57.0895 15.3583 57.1878 15.0384C57.286 14.7184 57.3117 14.3806 57.2629 14.0495C57.3081 13.7197 57.2799 13.384 57.1801 13.0664C57.0804 12.7488 56.9116 12.4572 56.686 12.2125C56.4603 11.9678 56.1833 11.776 55.8748 11.6509C55.5663 11.5258 55.2339 11.4705 54.9016 11.489H53.5516V16.6247Z" fill="white"/>
<path d="M59.6512 14.933C59.6172 14.5779 59.6579 14.2197 59.7705 13.8812C59.8831 13.5427 60.0652 13.2315 60.3051 12.9675C60.5451 12.7035 60.8375 12.4926 61.1637 12.3483C61.49 12.204 61.8427 12.1294 62.1995 12.1294C62.5562 12.1294 62.909 12.204 63.2352 12.3483C63.5614 12.4926 63.8539 12.7035 64.0938 12.9675C64.3337 13.2315 64.5158 13.5427 64.6284 13.8812C64.7411 14.2197 64.7817 14.5779 64.7477 14.933C64.7823 15.2885 64.7422 15.6473 64.6299 15.9863C64.5176 16.3254 64.3356 16.6371 64.0956 16.9016C63.8556 17.1661 63.5629 17.3775 63.2364 17.5221C62.9098 17.6668 62.5566 17.7415 62.1995 17.7415C61.8423 17.7415 61.4891 17.6668 61.1626 17.5221C60.836 17.3775 60.5433 17.1661 60.3033 16.9016C60.0634 16.6371 59.8814 16.3254 59.769 15.9863C59.6567 15.6473 59.6166 15.2885 59.6512 14.933ZM63.6508 14.933C63.6508 13.7618 63.1246 13.0768 62.2012 13.0768C61.2743 13.0768 60.7528 13.7618 60.7528 14.9331C60.7528 16.1137 61.2743 16.7934 62.2012 16.7934C63.1247 16.7934 63.6508 16.109 63.6508 14.933H63.6508Z" fill="white"/>
<path d="M71.5223 17.6372H70.416L69.2992 13.6575H69.2149L68.1027 17.6372H67.007L65.5176 12.2336H66.5992L67.5672 16.3568H67.6469L68.7578 12.2336H69.7809L70.8918 16.3568H70.9762L71.9395 12.2336H73.0059L71.5223 17.6372Z" fill="white"/>
<path d="M74.2588 12.2336H75.2854V13.092H75.365C75.5002 12.7837 75.7282 12.5253 76.0173 12.3527C76.3063 12.1802 76.642 12.1021 76.9775 12.1293C77.2405 12.1096 77.5045 12.1492 77.75 12.2453C77.9955 12.3414 78.2162 12.4916 78.3959 12.6846C78.5755 12.8776 78.7094 13.1086 78.7876 13.3603C78.8659 13.6121 78.8864 13.8783 78.8479 14.1391V17.6371H77.7815V14.4069C77.7815 13.5385 77.4041 13.1067 76.6154 13.1067C76.4369 13.0984 76.2587 13.1288 76.0931 13.1958C75.9274 13.2628 75.7782 13.3648 75.6556 13.4948C75.5331 13.6249 75.4401 13.7799 75.3831 13.9493C75.326 14.1186 75.3063 14.2983 75.3252 14.476V17.6372H74.2588L74.2588 12.2336Z" fill="white"/>
<path d="M80.5469 10.1243H81.6133V17.6372H80.5469V10.1243Z" fill="white"/>
<path d="M83.0955 14.9331C83.0616 14.578 83.1022 14.2197 83.2149 13.8812C83.3275 13.5427 83.5096 13.2315 83.7496 12.9675C83.9895 12.7035 84.282 12.4926 84.6083 12.3483C84.9345 12.204 85.2873 12.1294 85.6441 12.1294C86.0008 12.1294 86.3536 12.204 86.6799 12.3483C87.0061 12.4926 87.2986 12.7035 87.5385 12.9675C87.7785 13.2315 87.9606 13.5427 88.0732 13.8812C88.1859 14.2197 88.2265 14.578 88.1926 14.9331C88.2272 15.2886 88.187 15.6474 88.0746 15.9864C87.9623 16.3255 87.7803 16.6372 87.5402 16.9017C87.3002 17.1662 87.0075 17.3776 86.681 17.5222C86.3544 17.6668 86.0012 17.7416 85.6441 17.7416C85.2869 17.7416 84.9337 17.6668 84.6071 17.5222C84.2806 17.3776 83.9879 17.1662 83.7479 16.9017C83.5078 16.6372 83.3258 16.3255 83.2135 15.9864C83.1011 15.6474 83.0609 15.2886 83.0955 14.9331ZM87.0951 14.9331C87.0951 13.7619 86.5689 13.0769 85.6455 13.0769C84.7186 13.0769 84.1971 13.7619 84.1971 14.9332C84.1971 16.1138 84.7186 16.7935 85.6455 16.7935C86.569 16.7935 87.0951 16.1091 87.0951 14.9331H87.0951Z" fill="white"/>
<path d="M89.3154 16.1091C89.3154 15.1364 90.0397 14.5757 91.3252 14.496L92.7889 14.4116V13.9452C92.7889 13.3745 92.4115 13.0522 91.6826 13.0522C91.0873 13.0522 90.6748 13.2708 90.5564 13.6528H89.524C89.633 12.7247 90.5061 12.1294 91.7318 12.1294C93.0865 12.1294 93.8506 12.8038 93.8506 13.9452V17.6372H92.824V16.8778H92.7397C92.5684 17.1502 92.3279 17.3723 92.0428 17.5213C91.7576 17.6704 91.438 17.7411 91.1166 17.7262C90.8898 17.7498 90.6605 17.7256 90.4436 17.6552C90.2267 17.5847 90.0269 17.4696 89.8572 17.3173C89.6875 17.1649 89.5516 16.9787 89.4583 16.7706C89.365 16.5625 89.3163 16.3371 89.3154 16.1091ZM92.7889 15.6473V15.1956L91.4693 15.28C90.7252 15.3298 90.3877 15.5829 90.3877 16.0593C90.3877 16.5456 90.8096 16.8286 91.3897 16.8286C91.5597 16.8458 91.7314 16.8286 91.8946 16.7781C92.0578 16.7276 92.2092 16.6448 92.3397 16.5346C92.4702 16.4244 92.5773 16.289 92.6544 16.1366C92.7316 15.9842 92.7773 15.8178 92.7889 15.6473Z" fill="white"/>
<path d="M95.252 14.9331C95.252 13.2257 96.1297 12.144 97.4949 12.144C97.8326 12.1285 98.1678 12.2093 98.4612 12.3772C98.7546 12.5451 98.9942 12.793 99.152 13.092H99.2317V10.1243H100.298V17.6372H99.2762V16.7834H99.1918C99.0219 17.0804 98.7739 17.3253 98.4748 17.4914C98.1757 17.6576 97.8369 17.7388 97.4949 17.7262C96.1203 17.7263 95.252 16.6446 95.252 14.9331ZM96.3536 14.9331C96.3536 16.0792 96.8938 16.7688 97.7973 16.7688C98.6961 16.7688 99.2516 16.0692 99.2516 14.9378C99.2516 13.8116 98.6903 13.102 97.7973 13.102C96.8996 13.102 96.3535 13.7964 96.3535 14.9331H96.3536Z" fill="white"/>
<path d="M104.71 14.933C104.676 14.5779 104.717 14.2197 104.83 13.8812C104.942 13.5427 105.124 13.2315 105.364 12.9675C105.604 12.7035 105.897 12.4926 106.223 12.3483C106.549 12.204 106.902 12.1294 107.259 12.1294C107.615 12.1294 107.968 12.204 108.294 12.3483C108.62 12.4926 108.913 12.7035 109.153 12.9675C109.393 13.2315 109.575 13.5427 109.688 13.8812C109.8 14.2197 109.841 14.5779 109.807 14.933C109.841 15.2885 109.801 15.6473 109.689 15.9863C109.577 16.3254 109.395 16.6371 109.155 16.9016C108.915 17.1661 108.622 17.3775 108.295 17.5221C107.969 17.6668 107.616 17.7415 107.259 17.7415C106.901 17.7415 106.548 17.6668 106.222 17.5221C105.895 17.3775 105.602 17.1661 105.362 16.9016C105.122 16.6371 104.94 16.3254 104.828 15.9863C104.716 15.6473 104.676 15.2885 104.71 14.933ZM108.71 14.933C108.71 13.7618 108.184 13.0768 107.26 13.0768C106.333 13.0768 105.812 13.7618 105.812 14.9331C105.812 16.1137 106.333 16.7934 107.26 16.7934C108.184 16.7934 108.71 16.109 108.71 14.933Z" fill="white"/>
<path d="M111.238 12.2336H112.264V13.092H112.344C112.479 12.7837 112.707 12.5253 112.996 12.3527C113.285 12.1802 113.621 12.1021 113.957 12.1293C114.219 12.1096 114.483 12.1492 114.729 12.2453C114.975 12.3414 115.195 12.4916 115.375 12.6846C115.554 12.8776 115.688 13.1086 115.767 13.3603C115.845 13.6121 115.865 13.8783 115.827 14.1391V17.6371H114.76V14.4069C114.76 13.5385 114.383 13.1067 113.594 13.1067C113.416 13.0984 113.238 13.1288 113.072 13.1958C112.906 13.2628 112.757 13.3648 112.635 13.4948C112.512 13.6249 112.419 13.7799 112.362 13.9493C112.305 14.1186 112.285 14.2983 112.304 14.476V17.6372H111.238V12.2336Z" fill="white"/>
<path d="M121.853 10.8884V12.2583H123.023V13.1566H121.853V15.9351C121.853 16.5011 122.086 16.749 122.617 16.749C122.753 16.7485 122.888 16.7403 123.023 16.7244V17.6126C122.832 17.6469 122.638 17.6651 122.443 17.6671C121.257 17.6671 120.785 17.2499 120.785 16.2081V13.1565H119.927V12.2583H120.785V10.8884H121.853Z" fill="white"/>
<path d="M124.48 10.1243H125.537V13.102H125.621C125.763 12.7908 125.997 12.5309 126.292 12.3577C126.587 12.1845 126.928 12.1064 127.269 12.134C127.531 12.1198 127.792 12.1635 128.035 12.2619C128.277 12.3604 128.495 12.5112 128.673 12.7036C128.851 12.896 128.984 13.1253 129.063 13.375C129.142 13.6248 129.165 13.8889 129.13 14.1485V17.6372H128.062V14.4116C128.062 13.5485 127.66 13.1114 126.907 13.1114C126.724 13.0963 126.539 13.1215 126.367 13.1852C126.194 13.2489 126.038 13.3495 125.908 13.4799C125.779 13.6104 125.679 13.7676 125.617 13.9406C125.554 14.1136 125.53 14.2981 125.546 14.4813V17.6371H124.48L124.48 10.1243Z" fill="white"/>
<path d="M135.348 16.1781C135.203 16.6719 134.889 17.0991 134.461 17.3849C134.033 17.6707 133.518 17.7968 133.006 17.7413C132.65 17.7507 132.297 17.6826 131.97 17.5415C131.643 17.4005 131.35 17.19 131.113 16.9246C130.875 16.6593 130.698 16.3454 130.594 16.0048C130.49 15.6642 130.462 15.3051 130.51 14.9523C130.463 14.5984 130.492 14.2385 130.596 13.8969C130.7 13.5553 130.876 13.24 131.112 12.9723C131.348 12.7046 131.639 12.4908 131.965 12.3453C132.291 12.1999 132.645 12.1262 133.002 12.1292C134.505 12.1292 135.412 13.1564 135.412 14.8532V15.2253H131.597V15.2851C131.58 15.4834 131.605 15.683 131.67 15.8711C131.735 16.0592 131.838 16.2317 131.974 16.3774C132.109 16.5231 132.274 16.639 132.457 16.7174C132.64 16.7959 132.837 16.8353 133.036 16.8331C133.291 16.8637 133.549 16.8178 133.778 16.7012C134.007 16.5845 134.196 16.4024 134.321 16.178L135.348 16.1781ZM131.597 14.4367H134.326C134.339 14.2553 134.315 14.0731 134.254 13.9019C134.192 13.7306 134.096 13.574 133.971 13.4422C133.846 13.3104 133.694 13.2062 133.526 13.1364C133.358 13.0666 133.178 13.0327 132.996 13.0369C132.811 13.0345 132.628 13.0692 132.458 13.1387C132.287 13.2082 132.132 13.3113 132.001 13.4417C131.871 13.5722 131.768 13.7274 131.698 13.8983C131.629 14.0692 131.594 14.2522 131.597 14.4367H131.597Z" fill="white"/>
</g>
<defs>
<clipPath id="clip0_562_13110">
<rect width="162" height="48" fill="white"/>
</clipPath>
</defs>
</svg>
