<svg width="70" height="70" viewBox="0 0 70 70" fill="none" xmlns="http://www.w3.org/2000/svg">
<path opacity="0.15" d="M60 0H10C4.47715 0 0 4.47715 0 10V60C0 65.5229 4.47715 70 10 70H60C65.5229 70 70 65.5229 70 60V10C70 4.47715 65.5229 0 60 0Z" fill="#53B175"/>
<path d="M30.548 30.55C31.002 30.0952 31.311 29.5161 31.436 28.8858C31.561 28.2556 31.4963 27.6024 31.2501 27.0088C31.004 26.4153 30.5874 25.908 30.0531 25.5511C29.5187 25.1943 28.8906 25.0038 28.248 25.0038C27.6055 25.0038 26.9773 25.1943 26.443 25.5511C25.9087 25.908 25.4921 26.4153 25.246 27.0088C24.9998 27.6024 24.9351 28.2556 25.0601 28.8858C25.1851 29.5161 25.4941 30.0952 25.948 30.55C26.2499 30.8523 26.6084 31.0922 27.0031 31.2559C27.3977 31.4195 27.8208 31.5038 28.248 31.5038C28.6753 31.5038 29.0984 31.4195 29.493 31.2559C29.8877 31.0922 30.2462 30.8523 30.548 30.55ZM43.548 38.95C43.0933 38.496 42.5142 38.187 41.8839 38.062C41.2536 37.9371 40.6004 38.0017 40.0069 38.2479C39.4133 38.494 38.9061 38.9106 38.5492 39.4449C38.1923 39.9793 38.0019 40.6074 38.0019 41.25C38.0019 41.8925 38.1923 42.5207 38.5492 43.055C38.9061 43.5894 39.4133 44.0059 40.0069 44.2521C40.6004 44.4982 41.2536 44.5629 41.8839 44.4379C42.5142 44.313 43.0933 44.004 43.548 43.55C43.8504 43.2481 44.0903 42.8896 44.2539 42.4949C44.4176 42.1003 44.5019 41.6772 44.5019 41.25C44.5019 40.8227 44.4176 40.3997 44.2539 40.005C44.0903 39.6104 43.8504 39.2518 43.548 38.95ZM43.448 27.198L42.3 26.05C42.1492 25.8987 41.9699 25.7786 41.7726 25.6967C41.5753 25.6148 41.3637 25.5727 41.15 25.5727C40.9364 25.5727 40.7248 25.6148 40.5275 25.6967C40.3301 25.7786 40.1509 25.8987 40 26.05L26.051 40.003C25.8997 40.1538 25.7797 40.3331 25.6978 40.5304C25.6159 40.7278 25.5737 40.9393 25.5737 41.153C25.5737 41.3666 25.6159 41.5782 25.6978 41.7755C25.7797 41.9729 25.8997 42.1521 26.051 42.303L27.2 43.45C27.3509 43.6013 27.5301 43.7213 27.7275 43.8032C27.9248 43.8851 28.1364 43.9273 28.35 43.9273C28.5637 43.9273 28.7753 43.8851 28.9726 43.8032C29.1699 43.7213 29.3492 43.6013 29.5 43.45L43.449 29.497C43.6003 29.3461 43.7204 29.1669 43.8023 28.9695C43.8842 28.7722 43.9264 28.5606 43.9264 28.347C43.9264 28.1333 43.8842 27.9218 43.8023 27.7244C43.7204 27.5271 43.6003 27.3478 43.449 27.197L43.448 27.198Z" fill="#53B175"/>
</svg>
