<svg width="533" height="614" viewBox="0 0 533 614" fill="none" xmlns="http://www.w3.org/2000/svg">
<path d="M509.259 479.775H10.2202V480.025H509.259V479.775Z" fill="#EBEBEB"/>
<path d="M459.255 495.851H426.199V496.101H459.255V495.851Z" fill="#EBEBEB"/>
<path d="M340.803 498.569H332.13V498.818H340.803V498.569Z" fill="#EBEBEB"/>
<path d="M425.2 486.579H406.047V486.829H425.2V486.579Z" fill="#EBEBEB"/>
<path d="M105.686 488.258H62.5791V488.507H105.686V488.258Z" fill="#EBEBEB"/>
<path d="M120.897 488.258H114.579V488.507H120.897V488.258Z" fill="#EBEBEB"/>
<path d="M234.937 492.474H141.438V492.724H234.937V492.474Z" fill="#EBEBEB"/>
<path d="M246.785 435.214H54.056C50.912 435.214 48.3569 432.656 48.3569 429.509V158.315C48.3569 155.168 50.912 152.61 54.056 152.61H246.785C249.929 152.61 252.484 155.168 252.484 158.315V429.509C252.474 432.656 249.919 435.214 246.785 435.214ZM54.056 152.86C51.0517 152.86 48.6065 155.308 48.6065 158.315V429.509C48.6065 432.516 51.0517 434.964 54.056 434.964H246.785C249.789 434.964 252.234 432.516 252.234 429.509V158.315C252.234 155.308 249.789 152.86 246.785 152.86H54.056Z" fill="#EBEBEB"/>
<path d="M462.659 435.214H269.93C266.786 435.214 264.231 432.656 264.231 429.509V158.315C264.231 155.168 266.786 152.61 269.93 152.61H462.659C465.803 152.61 468.358 155.168 468.358 158.315V429.509C468.358 432.656 465.803 435.214 462.659 435.214ZM269.94 152.86C266.936 152.86 264.49 155.308 264.49 158.315V429.509C264.49 432.516 266.936 434.964 269.94 434.964H462.669C465.673 434.964 468.118 432.516 468.118 429.509V158.315C468.118 155.308 465.673 152.86 462.669 152.86H269.94Z" fill="#EBEBEB"/>
<path d="M454.783 214.776H212.969V448.113H454.783V214.776Z" fill="#E0E0E0"/>
<path d="M454.783 219.022H216.852V444.046H454.783V219.022Z" fill="#F5F5F5"/>
<path d="M218.608 389.544V321.863H225.635V312.92L241.434 305.527V296.375H244.069V321.863H246.704V389.544H250.217V354.384H258.122V335.93H260.757V389.544H266.905V369.331H271.297V364.056H280.948V345.592H286.218V333.293H292.366V314.829H295.001V333.293H301.149V345.592H306.419V364.056H316.08V369.331H320.462V389.544H325.732V364.056H335.393V307.795H338.028V301.65H359.097V307.795H363.489V348.23H381.055V352.626H387.203V355.264H381.055V371.09H399.49V318.346H403.003V307.795H411.786V267.36H414.421V307.795H420.569V318.346H454.783V444.046H216.852V389.544H218.608Z" fill="#E6E6E6"/>
<path d="M436.498 321.103H434.013V323.591H436.498V321.103Z" fill="#F0F0F0"/>
<path d="M436.498 325.28H434.013V327.767H436.498V325.28Z" fill="#F0F0F0"/>
<path d="M436.498 341.975H434.013V344.463H436.498V341.975Z" fill="#F0F0F0"/>
<path d="M436.498 346.151H434.013V348.639H436.498V346.151Z" fill="#F0F0F0"/>
<path d="M436.498 350.328H434.013V352.816H436.498V350.328Z" fill="#F0F0F0"/>
<path d="M436.498 362.857H434.013V365.345H436.498V362.857Z" fill="#F0F0F0"/>
<path d="M436.498 367.033H434.013V369.521H436.498V367.033Z" fill="#F0F0F0"/>
<path d="M432.546 337.809H430.061V340.296H432.546V337.809Z" fill="#F0F0F0"/>
<path d="M432.546 341.975H430.061V344.463H432.546V341.975Z" fill="#F0F0F0"/>
<path d="M432.546 346.151H430.061V348.639H432.546V346.151Z" fill="#F0F0F0"/>
<path d="M432.546 350.328H430.061V352.816H432.546V350.328Z" fill="#F0F0F0"/>
<path d="M432.546 354.504H430.061V356.992H432.546V354.504Z" fill="#F0F0F0"/>
<path d="M432.546 362.857H430.061V365.345H432.546V362.857Z" fill="#F0F0F0"/>
<path d="M432.546 367.033H430.061V369.521H432.546V367.033Z" fill="#F0F0F0"/>
<path d="M428.594 321.103H426.108V323.591H428.594V321.103Z" fill="#F0F0F0"/>
<path d="M428.594 325.28H426.108V327.767H428.594V325.28Z" fill="#F0F0F0"/>
<path d="M428.594 329.456H426.108V331.944H428.594V329.456Z" fill="#F0F0F0"/>
<path d="M428.594 333.632H426.108V336.12H428.594V333.632Z" fill="#F0F0F0"/>
<path d="M428.594 337.809H426.108V340.296H428.594V337.809Z" fill="#F0F0F0"/>
<path d="M428.594 341.975H426.108V344.463H428.594V341.975Z" fill="#F0F0F0"/>
<path d="M428.594 346.151H426.108V348.639H428.594V346.151Z" fill="#F0F0F0"/>
<path d="M428.594 350.328H426.108V352.816H428.594V350.328Z" fill="#F0F0F0"/>
<path d="M428.594 354.504H426.108V356.992H428.594V354.504Z" fill="#F0F0F0"/>
<path d="M428.594 358.681H426.108V361.169H428.594V358.681Z" fill="#F0F0F0"/>
<path d="M428.594 367.033H426.108V369.521H428.594V367.033Z" fill="#F0F0F0"/>
<path d="M424.641 321.103H422.156V323.591H424.641V321.103Z" fill="#F0F0F0"/>
<path d="M424.641 325.28H422.156V327.767H424.641V325.28Z" fill="#F0F0F0"/>
<path d="M424.641 329.456H422.156V331.944H424.641V329.456Z" fill="#F0F0F0"/>
<path d="M424.641 333.632H422.156V336.12H424.641V333.632Z" fill="#F0F0F0"/>
<path d="M424.641 337.809H422.156V340.296H424.641V337.809Z" fill="#F0F0F0"/>
<path d="M424.641 341.975H422.156V344.463H424.641V341.975Z" fill="#F0F0F0"/>
<path d="M424.641 346.151H422.156V348.639H424.641V346.151Z" fill="#F0F0F0"/>
<path d="M424.641 383.729H422.156V386.217H424.641V383.729Z" fill="#F0F0F0"/>
<path d="M420.689 321.103H418.204V323.591H420.689V321.103Z" fill="#F0F0F0"/>
<path d="M420.689 325.28H418.204V327.767H420.689V325.28Z" fill="#F0F0F0"/>
<path d="M420.689 329.456H418.204V331.944H420.689V329.456Z" fill="#F0F0F0"/>
<path d="M420.689 333.632H418.204V336.12H420.689V333.632Z" fill="#F0F0F0"/>
<path d="M420.689 337.809H418.204V340.296H420.689V337.809Z" fill="#F0F0F0"/>
<path d="M420.689 341.975H418.204V344.463H420.689V341.975Z" fill="#F0F0F0"/>
<path d="M420.689 346.151H418.204V348.639H420.689V346.151Z" fill="#F0F0F0"/>
<path d="M420.689 350.328H418.204V352.816H420.689V350.328Z" fill="#F0F0F0"/>
<path d="M420.689 375.386H418.204V377.874H420.689V375.386Z" fill="#F0F0F0"/>
<path d="M420.689 379.562H418.204V382.05H420.689V379.562Z" fill="#F0F0F0"/>
<path d="M420.689 383.729H418.204V386.217H420.689V383.729Z" fill="#F0F0F0"/>
<path d="M420.689 387.905H418.204V390.393H420.689V387.905Z" fill="#F0F0F0"/>
<path d="M420.689 404.611H418.204V407.098H420.689V404.611Z" fill="#F0F0F0"/>
<path d="M416.746 321.103H414.261V323.591H416.746V321.103Z" fill="#F0F0F0"/>
<path d="M416.746 325.28H414.261V327.767H416.746V325.28Z" fill="#F0F0F0"/>
<path d="M416.746 329.456H414.261V331.944H416.746V329.456Z" fill="#F0F0F0"/>
<path d="M416.746 333.632H414.261V336.12H416.746V333.632Z" fill="#F0F0F0"/>
<path d="M416.746 337.809H414.261V340.296H416.746V337.809Z" fill="#F0F0F0"/>
<path d="M416.746 341.975H414.261V344.463H416.746V341.975Z" fill="#F0F0F0"/>
<path d="M416.746 346.151H414.261V348.639H416.746V346.151Z" fill="#F0F0F0"/>
<path d="M416.746 350.328H414.261V352.816H416.746V350.328Z" fill="#F0F0F0"/>
<path d="M416.746 354.504H414.261V356.992H416.746V354.504Z" fill="#F0F0F0"/>
<path d="M416.746 358.681H414.261V361.169H416.746V358.681Z" fill="#F0F0F0"/>
<path d="M416.746 371.21H414.261V373.698H416.746V371.21Z" fill="#F0F0F0"/>
<path d="M416.746 375.386H414.261V377.874H416.746V375.386Z" fill="#F0F0F0"/>
<path d="M416.746 379.562H414.261V382.05H416.746V379.562Z" fill="#F0F0F0"/>
<path d="M416.746 383.729H414.261V386.217H416.746V383.729Z" fill="#F0F0F0"/>
<path d="M416.746 387.905H414.261V390.393H416.746V387.905Z" fill="#F0F0F0"/>
<path d="M416.746 404.611H414.261V407.098H416.746V404.611Z" fill="#F0F0F0"/>
<path d="M412.794 321.103H410.309V323.591H412.794V321.103Z" fill="#F0F0F0"/>
<path d="M412.794 325.28H410.309V327.767H412.794V325.28Z" fill="#F0F0F0"/>
<path d="M412.794 329.456H410.309V331.944H412.794V329.456Z" fill="#F0F0F0"/>
<path d="M412.794 333.632H410.309V336.12H412.794V333.632Z" fill="#F0F0F0"/>
<path d="M412.794 337.809H410.309V340.296H412.794V337.809Z" fill="#F0F0F0"/>
<path d="M412.794 341.975H410.309V344.463H412.794V341.975Z" fill="#F0F0F0"/>
<path d="M412.794 346.151H410.309V348.639H412.794V346.151Z" fill="#F0F0F0"/>
<path d="M412.794 350.328H410.309V352.816H412.794V350.328Z" fill="#F0F0F0"/>
<path d="M412.794 354.504H410.309V356.992H412.794V354.504Z" fill="#F0F0F0"/>
<path d="M412.794 358.681H410.309V361.169H412.794V358.681Z" fill="#F0F0F0"/>
<path d="M412.794 362.857H410.309V365.345H412.794V362.857Z" fill="#F0F0F0"/>
<path d="M412.794 367.033H410.309V369.521H412.794V367.033Z" fill="#F0F0F0"/>
<path d="M412.794 371.21H410.309V373.698H412.794V371.21Z" fill="#F0F0F0"/>
<path d="M412.794 375.386H410.309V377.874H412.794V375.386Z" fill="#F0F0F0"/>
<path d="M412.794 379.562H410.309V382.05H412.794V379.562Z" fill="#F0F0F0"/>
<path d="M412.794 383.729H410.309V386.217H412.794V383.729Z" fill="#F0F0F0"/>
<path d="M412.794 387.905H410.309V390.393H412.794V387.905Z" fill="#F0F0F0"/>
<path d="M412.794 392.082H410.309V394.569H412.794V392.082Z" fill="#F0F0F0"/>
<path d="M408.842 321.103H406.356V323.591H408.842V321.103Z" fill="#F0F0F0"/>
<path d="M408.842 325.28H406.356V327.767H408.842V325.28Z" fill="#F0F0F0"/>
<path d="M408.842 329.456H406.356V331.944H408.842V329.456Z" fill="#F0F0F0"/>
<path d="M408.842 333.632H406.356V336.12H408.842V333.632Z" fill="#F0F0F0"/>
<path d="M408.842 337.809H406.356V340.296H408.842V337.809Z" fill="#F0F0F0"/>
<path d="M408.842 341.975H406.356V344.463H408.842V341.975Z" fill="#F0F0F0"/>
<path d="M408.842 346.151H406.356V348.639H408.842V346.151Z" fill="#F0F0F0"/>
<path d="M408.842 350.328H406.356V352.816H408.842V350.328Z" fill="#F0F0F0"/>
<path d="M408.842 354.504H406.356V356.992H408.842V354.504Z" fill="#F0F0F0"/>
<path d="M408.842 358.681H406.356V361.169H408.842V358.681Z" fill="#F0F0F0"/>
<path d="M408.842 371.21H406.356V373.698H408.842V371.21Z" fill="#F0F0F0"/>
<path d="M408.842 375.386H406.356V377.874H408.842V375.386Z" fill="#F0F0F0"/>
<path d="M408.842 379.562H406.356V382.05H408.842V379.562Z" fill="#F0F0F0"/>
<path d="M408.842 383.729H406.356V386.217H408.842V383.729Z" fill="#F0F0F0"/>
<path d="M404.889 321.103H402.404V323.591H404.889V321.103Z" fill="#F0F0F0"/>
<path d="M404.889 325.28H402.404V327.767H404.889V325.28Z" fill="#F0F0F0"/>
<path d="M404.889 329.456H402.404V331.944H404.889V329.456Z" fill="#F0F0F0"/>
<path d="M404.889 333.632H402.404V336.12H404.889V333.632Z" fill="#F0F0F0"/>
<path d="M404.889 337.809H402.404V340.296H404.889V337.809Z" fill="#F0F0F0"/>
<path d="M404.889 341.975H402.404V344.463H404.889V341.975Z" fill="#F0F0F0"/>
<path d="M404.889 346.151H402.404V348.639H404.889V346.151Z" fill="#F0F0F0"/>
<path d="M404.889 350.328H402.404V352.816H404.889V350.328Z" fill="#F0F0F0"/>
<path d="M404.889 354.504H402.404V356.992H404.889V354.504Z" fill="#F0F0F0"/>
<path d="M404.889 358.681H402.404V361.169H404.889V358.681Z" fill="#F0F0F0"/>
<path d="M404.889 371.21H402.404V373.698H404.889V371.21Z" fill="#F0F0F0"/>
<path d="M404.889 375.386H402.404V377.874H404.889V375.386Z" fill="#F0F0F0"/>
<path d="M404.889 379.562H402.404V382.05H404.889V379.562Z" fill="#F0F0F0"/>
<path d="M360.395 310.263H357.91V312.751H360.395V310.263Z" fill="#F0F0F0"/>
<path d="M360.395 314.439H357.91V316.927H360.395V314.439Z" fill="#F0F0F0"/>
<path d="M360.395 318.615H357.91V321.103H360.395V318.615Z" fill="#F0F0F0"/>
<path d="M360.395 322.792H357.91V325.28H360.395V322.792Z" fill="#F0F0F0"/>
<path d="M360.395 326.968H357.91V329.456H360.395V326.968Z" fill="#F0F0F0"/>
<path d="M360.395 331.135H357.91V333.622H360.395V331.135Z" fill="#F0F0F0"/>
<path d="M360.395 335.311H357.91V337.799H360.395V335.311Z" fill="#F0F0F0"/>
<path d="M360.395 339.487H357.91V341.975H360.395V339.487Z" fill="#F0F0F0"/>
<path d="M360.395 352.016H357.91V354.504H360.395V352.016Z" fill="#F0F0F0"/>
<path d="M360.395 356.193H357.91V358.68H360.395V356.193Z" fill="#F0F0F0"/>
<path d="M356.443 310.263H353.958V312.751H356.443V310.263Z" fill="#F0F0F0"/>
<path d="M356.443 314.439H353.958V316.927H356.443V314.439Z" fill="#F0F0F0"/>
<path d="M356.443 318.615H353.958V321.103H356.443V318.615Z" fill="#F0F0F0"/>
<path d="M356.443 322.792H353.958V325.28H356.443V322.792Z" fill="#F0F0F0"/>
<path d="M356.443 326.968H353.958V329.456H356.443V326.968Z" fill="#F0F0F0"/>
<path d="M356.443 331.135H353.958V333.622H356.443V331.135Z" fill="#F0F0F0"/>
<path d="M356.443 335.311H353.958V337.799H356.443V335.311Z" fill="#F0F0F0"/>
<path d="M356.443 339.487H353.958V341.975H356.443V339.487Z" fill="#F0F0F0"/>
<path d="M356.443 356.193H353.958V358.68H356.443V356.193Z" fill="#F0F0F0"/>
<path d="M352.491 310.263H350.005V312.751H352.491V310.263Z" fill="#F0F0F0"/>
<path d="M352.491 314.439H350.005V316.927H352.491V314.439Z" fill="#F0F0F0"/>
<path d="M352.491 318.615H350.005V321.103H352.491V318.615Z" fill="#F0F0F0"/>
<path d="M352.491 322.792H350.005V325.28H352.491V322.792Z" fill="#F0F0F0"/>
<path d="M352.491 326.968H350.005V329.456H352.491V326.968Z" fill="#F0F0F0"/>
<path d="M352.491 331.135H350.005V333.622H352.491V331.135Z" fill="#F0F0F0"/>
<path d="M352.491 335.311H350.005V337.799H352.491V335.311Z" fill="#F0F0F0"/>
<path d="M352.491 339.487H350.005V341.975H352.491V339.487Z" fill="#F0F0F0"/>
<path d="M348.548 310.263H346.063V312.751H348.548V310.263Z" fill="#F0F0F0"/>
<path d="M348.548 314.439H346.063V316.927H348.548V314.439Z" fill="#F0F0F0"/>
<path d="M348.548 318.615H346.063V321.103H348.548V318.615Z" fill="#F0F0F0"/>
<path d="M348.548 322.792H346.063V325.28H348.548V322.792Z" fill="#F0F0F0"/>
<path d="M348.548 326.968H346.063V329.456H348.548V326.968Z" fill="#F0F0F0"/>
<path d="M348.548 331.135H346.063V333.622H348.548V331.135Z" fill="#F0F0F0"/>
<path d="M348.548 339.487H346.063V341.975H348.548V339.487Z" fill="#F0F0F0"/>
<path d="M348.548 343.664H346.063V346.151H348.548V343.664Z" fill="#F0F0F0"/>
<path d="M348.548 356.193H346.063V358.68H348.548V356.193Z" fill="#F0F0F0"/>
<path d="M348.548 360.369H346.063V362.857H348.548V360.369Z" fill="#F0F0F0"/>
<path d="M348.548 364.545H346.063V367.033H348.548V364.545Z" fill="#F0F0F0"/>
<path d="M348.548 368.722H346.063V371.21H348.548V368.722Z" fill="#F0F0F0"/>
<path d="M348.548 372.888H346.063V375.376H348.548V372.888Z" fill="#F0F0F0"/>
<path d="M348.548 377.064H346.063V379.552H348.548V377.064Z" fill="#F0F0F0"/>
<path d="M348.548 381.241H346.063V383.729H348.548V381.241Z" fill="#F0F0F0"/>
<path d="M344.596 310.263H342.11V312.751H344.596V310.263Z" fill="#F0F0F0"/>
<path d="M344.596 314.439H342.11V316.927H344.596V314.439Z" fill="#F0F0F0"/>
<path d="M344.596 318.615H342.11V321.103H344.596V318.615Z" fill="#F0F0F0"/>
<path d="M344.596 322.792H342.11V325.28H344.596V322.792Z" fill="#F0F0F0"/>
<path d="M344.596 326.968H342.11V329.456H344.596V326.968Z" fill="#F0F0F0"/>
<path d="M344.596 331.135H342.11V333.622H344.596V331.135Z" fill="#F0F0F0"/>
<path d="M344.596 343.664H342.11V346.151H344.596V343.664Z" fill="#F0F0F0"/>
<path d="M344.596 347.84H342.11V350.328H344.596V347.84Z" fill="#F0F0F0"/>
<path d="M344.596 352.016H342.11V354.504H344.596V352.016Z" fill="#F0F0F0"/>
<path d="M344.596 356.193H342.11V358.68H344.596V356.193Z" fill="#F0F0F0"/>
<path d="M344.596 360.369H342.11V362.857H344.596V360.369Z" fill="#F0F0F0"/>
<path d="M344.596 364.545H342.11V367.033H344.596V364.545Z" fill="#F0F0F0"/>
<path d="M344.596 368.722H342.11V371.21H344.596V368.722Z" fill="#F0F0F0"/>
<path d="M344.596 372.888H342.11V375.376H344.596V372.888Z" fill="#F0F0F0"/>
<path d="M344.596 377.064H342.11V379.552H344.596V377.064Z" fill="#F0F0F0"/>
<path d="M344.596 381.241H342.11V383.729H344.596V381.241Z" fill="#F0F0F0"/>
<path d="M344.596 385.417H342.11V387.905H344.596V385.417Z" fill="#F0F0F0"/>
<path d="M344.596 393.77H342.11V396.258H344.596V393.77Z" fill="#F0F0F0"/>
<path d="M340.643 310.263H338.158V312.751H340.643V310.263Z" fill="#F0F0F0"/>
<path d="M340.643 314.439H338.158V316.927H340.643V314.439Z" fill="#F0F0F0"/>
<path d="M340.643 318.615H338.158V321.103H340.643V318.615Z" fill="#F0F0F0"/>
<path d="M340.643 322.792H338.158V325.28H340.643V322.792Z" fill="#F0F0F0"/>
<path d="M340.643 326.968H338.158V329.456H340.643V326.968Z" fill="#F0F0F0"/>
<path d="M340.643 331.135H338.158V333.622H340.643V331.135Z" fill="#F0F0F0"/>
<path d="M340.643 343.664H338.158V346.151H340.643V343.664Z" fill="#F0F0F0"/>
<path d="M340.643 347.84H338.158V350.328H340.643V347.84Z" fill="#F0F0F0"/>
<path d="M340.643 352.016H338.158V354.504H340.643V352.016Z" fill="#F0F0F0"/>
<path d="M340.643 356.193H338.158V358.68H340.643V356.193Z" fill="#F0F0F0"/>
<path d="M340.643 368.722H338.158V371.21H340.643V368.722Z" fill="#F0F0F0"/>
<path d="M340.643 372.888H338.158V375.376H340.643V372.888Z" fill="#F0F0F0"/>
<path d="M340.643 377.064H338.158V379.552H340.643V377.064Z" fill="#F0F0F0"/>
<path d="M340.643 381.241H338.158V383.729H340.643V381.241Z" fill="#F0F0F0"/>
<path d="M340.643 385.417H338.158V387.905H340.643V385.417Z" fill="#F0F0F0"/>
<path d="M340.643 393.77H338.158V396.258H340.643V393.77Z" fill="#F0F0F0"/>
<path d="M340.643 397.946H338.158V400.434H340.643V397.946Z" fill="#F0F0F0"/>
<path d="M304.782 349.089H302.297V351.577H304.782V349.089Z" fill="#F0F0F0"/>
<path d="M304.782 353.265H302.297V355.753H304.782V353.265Z" fill="#F0F0F0"/>
<path d="M304.782 357.432H302.297V359.919H304.782V357.432Z" fill="#F0F0F0"/>
<path d="M304.782 361.608H302.297V364.096H304.782V361.608Z" fill="#F0F0F0"/>
<path d="M304.782 365.784H302.297V368.272H304.782V365.784Z" fill="#F0F0F0"/>
<path d="M304.782 369.961H302.297V372.449H304.782V369.961Z" fill="#F0F0F0"/>
<path d="M304.782 374.137H302.297V376.625H304.782V374.137Z" fill="#F0F0F0"/>
<path d="M304.782 386.666H302.297V389.154H304.782V386.666Z" fill="#F0F0F0"/>
<path d="M304.782 390.843H302.297V393.33H304.782V390.843Z" fill="#F0F0F0"/>
<path d="M304.782 395.019H302.297V397.507H304.782V395.019Z" fill="#F0F0F0"/>
<path d="M300.83 349.089H298.345V351.577H300.83V349.089Z" fill="#F0F0F0"/>
<path d="M300.83 353.265H298.345V355.753H300.83V353.265Z" fill="#F0F0F0"/>
<path d="M300.83 357.432H298.345V359.919H300.83V357.432Z" fill="#F0F0F0"/>
<path d="M300.83 361.608H298.345V364.096H300.83V361.608Z" fill="#F0F0F0"/>
<path d="M300.83 365.784H298.345V368.272H300.83V365.784Z" fill="#F0F0F0"/>
<path d="M300.83 369.961H298.345V372.449H300.83V369.961Z" fill="#F0F0F0"/>
<path d="M300.83 374.137H298.345V376.625H300.83V374.137Z" fill="#F0F0F0"/>
<path d="M296.888 349.089H294.402V351.577H296.888V349.089Z" fill="#F0F0F0"/>
<path d="M296.888 353.265H294.402V355.753H296.888V353.265Z" fill="#F0F0F0"/>
<path d="M296.888 357.432H294.402V359.919H296.888V357.432Z" fill="#F0F0F0"/>
<path d="M296.888 361.608H294.402V364.096H296.888V361.608Z" fill="#F0F0F0"/>
<path d="M296.888 365.784H294.402V368.272H296.888V365.784Z" fill="#F0F0F0"/>
<path d="M296.888 369.961H294.402V372.449H296.888V369.961Z" fill="#F0F0F0"/>
<path d="M296.888 374.137H294.402V376.625H296.888V374.137Z" fill="#F0F0F0"/>
<path d="M292.935 349.089H290.45V351.577H292.935V349.089Z" fill="#F0F0F0"/>
<path d="M292.935 353.265H290.45V355.753H292.935V353.265Z" fill="#F0F0F0"/>
<path d="M292.935 357.432H290.45V359.919H292.935V357.432Z" fill="#F0F0F0"/>
<path d="M292.935 361.608H290.45V364.096H292.935V361.608Z" fill="#F0F0F0"/>
<path d="M292.935 365.784H290.45V368.272H292.935V365.784Z" fill="#F0F0F0"/>
<path d="M292.935 369.961H290.45V372.449H292.935V369.961Z" fill="#F0F0F0"/>
<path d="M292.935 374.137H290.45V376.625H292.935V374.137Z" fill="#F0F0F0"/>
<path d="M292.935 378.313H290.45V380.801H292.935V378.313Z" fill="#F0F0F0"/>
<path d="M292.935 382.49H290.45V384.978H292.935V382.49Z" fill="#F0F0F0"/>
<path d="M292.935 386.666H290.45V389.154H292.935V386.666Z" fill="#F0F0F0"/>
<path d="M292.935 390.843H290.45V393.33H292.935V390.843Z" fill="#F0F0F0"/>
<path d="M288.983 349.089H286.498V351.577H288.983V349.089Z" fill="#F0F0F0"/>
<path d="M288.983 353.265H286.498V355.753H288.983V353.265Z" fill="#F0F0F0"/>
<path d="M288.983 357.432H286.498V359.919H288.983V357.432Z" fill="#F0F0F0"/>
<path d="M288.983 361.608H286.498V364.096H288.983V361.608Z" fill="#F0F0F0"/>
<path d="M288.983 365.784H286.498V368.272H288.983V365.784Z" fill="#F0F0F0"/>
<path d="M288.983 369.961H286.498V372.449H288.983V369.961Z" fill="#F0F0F0"/>
<path d="M288.983 374.137H286.498V376.625H288.983V374.137Z" fill="#F0F0F0"/>
<path d="M288.983 378.313H286.498V380.801H288.983V378.313Z" fill="#F0F0F0"/>
<path d="M288.983 382.49H286.498V384.978H288.983V382.49Z" fill="#F0F0F0"/>
<path d="M288.983 386.666H286.498V389.154H288.983V386.666Z" fill="#F0F0F0"/>
<path d="M288.983 390.843H286.498V393.33H288.983V390.843Z" fill="#F0F0F0"/>
<path d="M288.983 395.019H286.498V397.507H288.983V395.019Z" fill="#F0F0F0"/>
<path d="M288.983 407.538H286.498V410.026H288.983V407.538Z" fill="#F0F0F0"/>
<path d="M288.983 411.714H286.498V414.202H288.983V411.714Z" fill="#F0F0F0"/>
<path d="M285.03 349.089H282.545V351.577H285.03V349.089Z" fill="#F0F0F0"/>
<path d="M285.03 353.265H282.545V355.753H285.03V353.265Z" fill="#F0F0F0"/>
<path d="M285.03 357.432H282.545V359.919H285.03V357.432Z" fill="#F0F0F0"/>
<path d="M285.03 369.961H282.545V372.449H285.03V369.961Z" fill="#F0F0F0"/>
<path d="M285.03 374.137H282.545V376.625H285.03V374.137Z" fill="#F0F0F0"/>
<path d="M285.03 378.313H282.545V380.801H285.03V378.313Z" fill="#F0F0F0"/>
<path d="M285.03 382.49H282.545V384.978H285.03V382.49Z" fill="#F0F0F0"/>
<path d="M285.03 386.666H282.545V389.154H285.03V386.666Z" fill="#F0F0F0"/>
<path d="M285.03 390.843H282.545V393.33H285.03V390.843Z" fill="#F0F0F0"/>
<path d="M285.03 395.019H282.545V397.507H285.03V395.019Z" fill="#F0F0F0"/>
<path d="M285.03 407.538H282.545V410.026H285.03V407.538Z" fill="#F0F0F0"/>
<path d="M285.03 411.714H282.545V414.202H285.03V411.714Z" fill="#F0F0F0"/>
<path d="M285.03 415.891H282.545V418.378H285.03V415.891Z" fill="#F0F0F0"/>
<path d="M243.61 324.031H241.125V326.519H243.61V324.031Z" fill="#F0F0F0"/>
<path d="M243.61 328.207H241.125V330.695H243.61V328.207Z" fill="#F0F0F0"/>
<path d="M243.61 332.384H241.125V334.871H243.61V332.384Z" fill="#F0F0F0"/>
<path d="M243.61 336.56H241.125V339.048H243.61V336.56Z" fill="#F0F0F0"/>
<path d="M243.61 340.736H241.125V343.224H243.61V340.736Z" fill="#F0F0F0"/>
<path d="M243.61 344.913H241.125V347.4H243.61V344.913Z" fill="#F0F0F0"/>
<path d="M243.61 349.089H241.125V351.577H243.61V349.089Z" fill="#F0F0F0"/>
<path d="M243.61 353.265H241.125V355.753H243.61V353.265Z" fill="#F0F0F0"/>
<path d="M243.61 357.432H241.125V359.919H243.61V357.432Z" fill="#F0F0F0"/>
<path d="M243.61 361.608H241.125V364.096H243.61V361.608Z" fill="#F0F0F0"/>
<path d="M243.61 365.784H241.125V368.272H243.61V365.784Z" fill="#F0F0F0"/>
<path d="M243.61 369.961H241.125V372.449H243.61V369.961Z" fill="#F0F0F0"/>
<path d="M243.61 374.137H241.125V376.625H243.61V374.137Z" fill="#F0F0F0"/>
<path d="M243.61 378.313H241.125V380.801H243.61V378.313Z" fill="#F0F0F0"/>
<path d="M243.61 382.49H241.125V384.978H243.61V382.49Z" fill="#F0F0F0"/>
<path d="M243.61 386.666H241.125V389.154H243.61V386.666Z" fill="#F0F0F0"/>
<path d="M243.61 390.843H241.125V393.33H243.61V390.843Z" fill="#F0F0F0"/>
<path d="M243.61 395.019H241.125V397.507H243.61V395.019Z" fill="#F0F0F0"/>
<path d="M243.61 399.185H241.125V401.673H243.61V399.185Z" fill="#F0F0F0"/>
<path d="M243.61 403.362H241.125V405.849H243.61V403.362Z" fill="#F0F0F0"/>
<path d="M243.61 407.538H241.125V410.026H243.61V407.538Z" fill="#F0F0F0"/>
<path d="M243.61 411.714H241.125V414.202H243.61V411.714Z" fill="#F0F0F0"/>
<path d="M243.61 415.891H241.125V418.378H243.61V415.891Z" fill="#F0F0F0"/>
<path d="M239.658 324.031H237.173V326.519H239.658V324.031Z" fill="#F0F0F0"/>
<path d="M239.658 328.207H237.173V330.695H239.658V328.207Z" fill="#F0F0F0"/>
<path d="M239.658 332.384H237.173V334.871H239.658V332.384Z" fill="#F0F0F0"/>
<path d="M239.658 336.56H237.173V339.048H239.658V336.56Z" fill="#F0F0F0"/>
<path d="M239.658 340.736H237.173V343.224H239.658V340.736Z" fill="#F0F0F0"/>
<path d="M239.658 344.913H237.173V347.4H239.658V344.913Z" fill="#F0F0F0"/>
<path d="M239.658 349.089H237.173V351.577H239.658V349.089Z" fill="#F0F0F0"/>
<path d="M239.658 353.265H237.173V355.753H239.658V353.265Z" fill="#F0F0F0"/>
<path d="M239.658 357.432H237.173V359.919H239.658V357.432Z" fill="#F0F0F0"/>
<path d="M239.658 361.608H237.173V364.096H239.658V361.608Z" fill="#F0F0F0"/>
<path d="M239.658 365.784H237.173V368.272H239.658V365.784Z" fill="#F0F0F0"/>
<path d="M239.658 369.961H237.173V372.449H239.658V369.961Z" fill="#F0F0F0"/>
<path d="M239.658 374.137H237.173V376.625H239.658V374.137Z" fill="#F0F0F0"/>
<path d="M239.658 378.313H237.173V380.801H239.658V378.313Z" fill="#F0F0F0"/>
<path d="M239.658 382.49H237.173V384.978H239.658V382.49Z" fill="#F0F0F0"/>
<path d="M239.658 386.666H237.173V389.154H239.658V386.666Z" fill="#F0F0F0"/>
<path d="M239.658 390.843H237.173V393.33H239.658V390.843Z" fill="#F0F0F0"/>
<path d="M239.658 395.019H237.173V397.507H239.658V395.019Z" fill="#F0F0F0"/>
<path d="M239.658 399.185H237.173V401.673H239.658V399.185Z" fill="#F0F0F0"/>
<path d="M235.705 324.031H233.22V326.519H235.705V324.031Z" fill="#F0F0F0"/>
<path d="M235.705 328.207H233.22V330.695H235.705V328.207Z" fill="#F0F0F0"/>
<path d="M235.705 332.384H233.22V334.871H235.705V332.384Z" fill="#F0F0F0"/>
<path d="M235.705 336.56H233.22V339.048H235.705V336.56Z" fill="#F0F0F0"/>
<path d="M235.705 340.736H233.22V343.224H235.705V340.736Z" fill="#F0F0F0"/>
<path d="M235.705 344.913H233.22V347.4H235.705V344.913Z" fill="#F0F0F0"/>
<path d="M235.705 349.089H233.22V351.577H235.705V349.089Z" fill="#F0F0F0"/>
<path d="M235.705 353.265H233.22V355.753H235.705V353.265Z" fill="#F0F0F0"/>
<path d="M235.705 357.432H233.22V359.919H235.705V357.432Z" fill="#F0F0F0"/>
<path d="M235.705 361.608H233.22V364.096H235.705V361.608Z" fill="#F0F0F0"/>
<path d="M235.705 365.784H233.22V368.272H235.705V365.784Z" fill="#F0F0F0"/>
<path d="M235.705 369.961H233.22V372.449H235.705V369.961Z" fill="#F0F0F0"/>
<path d="M235.705 374.137H233.22V376.625H235.705V374.137Z" fill="#F0F0F0"/>
<path d="M235.705 378.313H233.22V380.801H235.705V378.313Z" fill="#F0F0F0"/>
<path d="M235.705 382.49H233.22V384.978H235.705V382.49Z" fill="#F0F0F0"/>
<path d="M235.705 386.666H233.22V389.154H235.705V386.666Z" fill="#F0F0F0"/>
<path d="M235.705 390.843H233.22V393.33H235.705V390.843Z" fill="#F0F0F0"/>
<path d="M235.705 395.019H233.22V397.507H235.705V395.019Z" fill="#F0F0F0"/>
<path d="M235.705 399.185H233.22V401.673H235.705V399.185Z" fill="#F0F0F0"/>
<path d="M231.753 324.031H229.268V326.519H231.753V324.031Z" fill="#F0F0F0"/>
<path d="M231.753 328.207H229.268V330.695H231.753V328.207Z" fill="#F0F0F0"/>
<path d="M231.753 332.384H229.268V334.871H231.753V332.384Z" fill="#F0F0F0"/>
<path d="M231.753 336.56H229.268V339.048H231.753V336.56Z" fill="#F0F0F0"/>
<path d="M231.753 340.736H229.268V343.224H231.753V340.736Z" fill="#F0F0F0"/>
<path d="M231.753 344.913H229.268V347.4H231.753V344.913Z" fill="#F0F0F0"/>
<path d="M231.753 349.089H229.268V351.577H231.753V349.089Z" fill="#F0F0F0"/>
<path d="M231.753 353.265H229.268V355.753H231.753V353.265Z" fill="#F0F0F0"/>
<path d="M231.753 357.432H229.268V359.919H231.753V357.432Z" fill="#F0F0F0"/>
<path d="M231.753 361.608H229.268V364.096H231.753V361.608Z" fill="#F0F0F0"/>
<path d="M231.753 365.784H229.268V368.272H231.753V365.784Z" fill="#F0F0F0"/>
<path d="M231.753 369.961H229.268V372.449H231.753V369.961Z" fill="#F0F0F0"/>
<path d="M231.753 374.137H229.268V376.625H231.753V374.137Z" fill="#F0F0F0"/>
<path d="M231.753 378.313H229.268V380.801H231.753V378.313Z" fill="#F0F0F0"/>
<path d="M231.753 382.49H229.268V384.978H231.753V382.49Z" fill="#F0F0F0"/>
<path d="M227.81 324.031H225.325V326.519H227.81V324.031Z" fill="#F0F0F0"/>
<path d="M227.81 328.207H225.325V330.695H227.81V328.207Z" fill="#F0F0F0"/>
<path d="M227.81 332.384H225.325V334.871H227.81V332.384Z" fill="#F0F0F0"/>
<path d="M227.81 336.56H225.325V339.048H227.81V336.56Z" fill="#F0F0F0"/>
<path d="M227.81 340.736H225.325V343.224H227.81V340.736Z" fill="#F0F0F0"/>
<path d="M227.81 344.913H225.325V347.4H227.81V344.913Z" fill="#F0F0F0"/>
<path d="M227.81 349.089H225.325V351.577H227.81V349.089Z" fill="#F0F0F0"/>
<path d="M227.81 353.265H225.325V355.753H227.81V353.265Z" fill="#F0F0F0"/>
<path d="M227.81 357.432H225.325V359.919H227.81V357.432Z" fill="#F0F0F0"/>
<path d="M227.81 361.608H225.325V364.096H227.81V361.608Z" fill="#F0F0F0"/>
<path d="M227.81 365.784H225.325V368.272H227.81V365.784Z" fill="#F0F0F0"/>
<path d="M227.81 369.961H225.325V372.449H227.81V369.961Z" fill="#F0F0F0"/>
<path d="M227.81 374.137H225.325V376.625H227.81V374.137Z" fill="#F0F0F0"/>
<path d="M223.858 324.031H221.373V326.519H223.858V324.031Z" fill="#F0F0F0"/>
<path d="M223.858 328.207H221.373V330.695H223.858V328.207Z" fill="#F0F0F0"/>
<path d="M223.858 332.384H221.373V334.871H223.858V332.384Z" fill="#F0F0F0"/>
<path d="M223.858 336.56H221.373V339.048H223.858V336.56Z" fill="#F0F0F0"/>
<path d="M223.858 340.736H221.373V343.224H223.858V340.736Z" fill="#F0F0F0"/>
<path d="M223.858 344.913H221.373V347.4H223.858V344.913Z" fill="#F0F0F0"/>
<path d="M223.858 349.089H221.373V351.577H223.858V349.089Z" fill="#F0F0F0"/>
<path d="M223.858 353.265H221.373V355.753H223.858V353.265Z" fill="#F0F0F0"/>
<path d="M223.858 357.432H221.373V359.919H223.858V357.432Z" fill="#F0F0F0"/>
<path d="M223.858 361.608H221.373V364.096H223.858V361.608Z" fill="#F0F0F0"/>
<path d="M223.858 365.784H221.373V368.272H223.858V365.784Z" fill="#F0F0F0"/>
<path d="M223.858 369.961H221.373V372.449H223.858V369.961Z" fill="#F0F0F0"/>
<path d="M454.504 322.792H452.019V325.28H454.504V322.792Z" fill="#F0F0F0"/>
<path d="M454.504 326.968H452.019V329.456H454.504V326.968Z" fill="#F0F0F0"/>
<path d="M454.504 331.135H452.019V333.622H454.504V331.135Z" fill="#F0F0F0"/>
<path d="M454.504 335.311H452.019V337.799H454.504V335.311Z" fill="#F0F0F0"/>
<path d="M454.504 339.487H452.019V341.975H454.504V339.487Z" fill="#F0F0F0"/>
<path d="M454.504 343.664H452.019V346.151H454.504V343.664Z" fill="#F0F0F0"/>
<path d="M454.504 347.84H452.019V350.328H454.504V347.84Z" fill="#F0F0F0"/>
<path d="M454.504 352.016H452.019V354.504H454.504V352.016Z" fill="#F0F0F0"/>
<path d="M454.504 356.193H452.019V358.68H454.504V356.193Z" fill="#F0F0F0"/>
<path d="M454.504 360.369H452.019V362.857H454.504V360.369Z" fill="#F0F0F0"/>
<path d="M454.504 364.545H452.019V367.033H454.504V364.545Z" fill="#F0F0F0"/>
<path d="M454.504 368.722H452.019V371.21H454.504V368.722Z" fill="#F0F0F0"/>
<path d="M454.504 372.888H452.019V375.376H454.504V372.888Z" fill="#F0F0F0"/>
<path d="M454.504 377.064H452.019V379.552H454.504V377.064Z" fill="#F0F0F0"/>
<path d="M454.504 381.241H452.019V383.729H454.504V381.241Z" fill="#F0F0F0"/>
<path d="M454.504 385.417H452.019V387.905H454.504V385.417Z" fill="#F0F0F0"/>
<path d="M454.504 389.594H452.019V392.082H454.504V389.594Z" fill="#F0F0F0"/>
<path d="M454.504 397.946H452.019V400.434H454.504V397.946Z" fill="#F0F0F0"/>
<path d="M454.504 402.123H452.019V404.611H454.504V402.123Z" fill="#F0F0F0"/>
<path d="M454.504 406.299H452.019V408.787H454.504V406.299Z" fill="#F0F0F0"/>
<path d="M454.504 410.466H452.019V412.953H454.504V410.466Z" fill="#F0F0F0"/>
<path d="M454.504 414.642H452.019V417.13H454.504V414.642Z" fill="#F0F0F0"/>
<path d="M450.552 322.792H448.066V325.28H450.552V322.792Z" fill="#F0F0F0"/>
<path d="M450.552 326.968H448.066V329.456H450.552V326.968Z" fill="#F0F0F0"/>
<path d="M450.552 331.135H448.066V333.622H450.552V331.135Z" fill="#F0F0F0"/>
<path d="M450.552 335.311H448.066V337.799H450.552V335.311Z" fill="#F0F0F0"/>
<path d="M450.552 339.487H448.066V341.975H450.552V339.487Z" fill="#F0F0F0"/>
<path d="M450.552 343.664H448.066V346.151H450.552V343.664Z" fill="#F0F0F0"/>
<path d="M450.552 347.84H448.066V350.328H450.552V347.84Z" fill="#F0F0F0"/>
<path d="M450.552 352.016H448.066V354.504H450.552V352.016Z" fill="#F0F0F0"/>
<path d="M450.552 356.193H448.066V358.68H450.552V356.193Z" fill="#F0F0F0"/>
<path d="M450.552 360.369H448.066V362.857H450.552V360.369Z" fill="#F0F0F0"/>
<path d="M450.552 364.545H448.066V367.033H450.552V364.545Z" fill="#F0F0F0"/>
<path d="M450.552 368.722H448.066V371.21H450.552V368.722Z" fill="#F0F0F0"/>
<path d="M450.552 372.888H448.066V375.376H450.552V372.888Z" fill="#F0F0F0"/>
<path d="M450.552 377.064H448.066V379.552H450.552V377.064Z" fill="#F0F0F0"/>
<path d="M450.552 381.241H448.066V383.729H450.552V381.241Z" fill="#F0F0F0"/>
<path d="M450.552 385.417H448.066V387.905H450.552V385.417Z" fill="#F0F0F0"/>
<path d="M450.552 410.466H448.066V412.953H450.552V410.466Z" fill="#F0F0F0"/>
<path d="M450.552 414.642H448.066V417.13H450.552V414.642Z" fill="#F0F0F0"/>
<path d="M446.599 322.792H444.114V325.28H446.599V322.792Z" fill="#F0F0F0"/>
<path d="M446.599 326.968H444.114V329.456H446.599V326.968Z" fill="#F0F0F0"/>
<path d="M446.599 331.135H444.114V333.622H446.599V331.135Z" fill="#F0F0F0"/>
<path d="M446.599 335.311H444.114V337.799H446.599V335.311Z" fill="#F0F0F0"/>
<path d="M446.599 339.487H444.114V341.975H446.599V339.487Z" fill="#F0F0F0"/>
<path d="M446.599 343.664H444.114V346.151H446.599V343.664Z" fill="#F0F0F0"/>
<path d="M446.599 347.84H444.114V350.328H446.599V347.84Z" fill="#F0F0F0"/>
<path d="M446.599 352.016H444.114V354.504H446.599V352.016Z" fill="#F0F0F0"/>
<path d="M446.599 356.193H444.114V358.68H446.599V356.193Z" fill="#F0F0F0"/>
<path d="M446.599 360.369H444.114V362.857H446.599V360.369Z" fill="#F0F0F0"/>
<path d="M446.599 364.545H444.114V367.033H446.599V364.545Z" fill="#F0F0F0"/>
<path d="M446.599 368.722H444.114V371.21H446.599V368.722Z" fill="#F0F0F0"/>
<path d="M446.599 372.888H444.114V375.376H446.599V372.888Z" fill="#F0F0F0"/>
<path d="M446.599 377.064H444.114V379.552H446.599V377.064Z" fill="#F0F0F0"/>
<path d="M446.599 381.241H444.114V383.729H446.599V381.241Z" fill="#F0F0F0"/>
<path d="M446.599 385.417H444.114V387.905H446.599V385.417Z" fill="#F0F0F0"/>
<path d="M446.599 393.77H444.114V396.258H446.599V393.77Z" fill="#F0F0F0"/>
<path d="M446.599 397.946H444.114V400.434H446.599V397.946Z" fill="#F0F0F0"/>
<path d="M446.599 402.123H444.114V404.611H446.599V402.123Z" fill="#F0F0F0"/>
<path d="M446.599 406.299H444.114V408.787H446.599V406.299Z" fill="#F0F0F0"/>
<path d="M446.599 414.642H444.114V417.13H446.599V414.642Z" fill="#F0F0F0"/>
<path d="M377.672 352.016H375.187V354.504H377.672V352.016Z" fill="#F0F0F0"/>
<path d="M377.672 356.193H375.187V358.68H377.672V356.193Z" fill="#F0F0F0"/>
<path d="M377.672 360.369H375.187V362.857H377.672V360.369Z" fill="#F0F0F0"/>
<path d="M377.672 364.545H375.187V367.033H377.672V364.545Z" fill="#F0F0F0"/>
<path d="M377.672 368.722H375.187V371.21H377.672V368.722Z" fill="#F0F0F0"/>
<path d="M377.672 372.888H375.187V375.376H377.672V372.888Z" fill="#F0F0F0"/>
<path d="M377.672 377.064H375.187V379.552H377.672V377.064Z" fill="#F0F0F0"/>
<path d="M377.672 381.241H375.187V383.729H377.672V381.241Z" fill="#F0F0F0"/>
<path d="M377.672 385.417H375.187V387.905H377.672V385.417Z" fill="#F0F0F0"/>
<path d="M377.672 389.594H375.187V392.082H377.672V389.594Z" fill="#F0F0F0"/>
<path d="M377.672 393.77H375.187V396.258H377.672V393.77Z" fill="#F0F0F0"/>
<path d="M377.672 397.946H375.187V400.434H377.672V397.946Z" fill="#F0F0F0"/>
<path d="M377.672 402.123H375.187V404.611H377.672V402.123Z" fill="#F0F0F0"/>
<path d="M377.672 410.466H375.187V412.953H377.672V410.466Z" fill="#F0F0F0"/>
<path d="M377.672 414.642H375.187V417.13H377.672V414.642Z" fill="#F0F0F0"/>
<path d="M377.672 418.818H375.187V421.306H377.672V418.818Z" fill="#F0F0F0"/>
<path d="M377.672 422.995H375.187V425.482H377.672V422.995Z" fill="#F0F0F0"/>
<path d="M377.672 431.347H375.187V433.835H377.672V431.347Z" fill="#F0F0F0"/>
<path d="M377.672 435.524H375.187V438.012H377.672V435.524Z" fill="#F0F0F0"/>
<path d="M377.672 439.7H375.187V442.188H377.672V439.7Z" fill="#F0F0F0"/>
<path d="M373.72 352.016H371.234V354.504H373.72V352.016Z" fill="#F0F0F0"/>
<path d="M373.72 356.193H371.234V358.68H373.72V356.193Z" fill="#F0F0F0"/>
<path d="M373.72 360.369H371.234V362.857H373.72V360.369Z" fill="#F0F0F0"/>
<path d="M373.72 364.545H371.234V367.033H373.72V364.545Z" fill="#F0F0F0"/>
<path d="M373.72 368.722H371.234V371.21H373.72V368.722Z" fill="#F0F0F0"/>
<path d="M373.72 372.888H371.234V375.376H373.72V372.888Z" fill="#F0F0F0"/>
<path d="M373.72 377.064H371.234V379.552H373.72V377.064Z" fill="#F0F0F0"/>
<path d="M373.72 381.241H371.234V383.729H373.72V381.241Z" fill="#F0F0F0"/>
<path d="M373.72 385.417H371.234V387.905H373.72V385.417Z" fill="#F0F0F0"/>
<path d="M373.72 389.594H371.234V392.082H373.72V389.594Z" fill="#F0F0F0"/>
<path d="M373.72 393.77H371.234V396.258H373.72V393.77Z" fill="#F0F0F0"/>
<path d="M373.72 397.946H371.234V400.434H373.72V397.946Z" fill="#F0F0F0"/>
<path d="M373.72 402.123H371.234V404.611H373.72V402.123Z" fill="#F0F0F0"/>
<path d="M373.72 414.642H371.234V417.13H373.72V414.642Z" fill="#F0F0F0"/>
<path d="M373.72 418.818H371.234V421.306H373.72V418.818Z" fill="#F0F0F0"/>
<path d="M373.72 427.171H371.234V429.659H373.72V427.171Z" fill="#F0F0F0"/>
<path d="M373.72 431.347H371.234V433.835H373.72V431.347Z" fill="#F0F0F0"/>
<path d="M373.72 435.524H371.234V438.012H373.72V435.524Z" fill="#F0F0F0"/>
<path d="M373.72 439.7H371.234V442.188H373.72V439.7Z" fill="#F0F0F0"/>
<path d="M369.767 352.016H367.282V354.504H369.767V352.016Z" fill="#F0F0F0"/>
<path d="M369.767 356.193H367.282V358.68H369.767V356.193Z" fill="#F0F0F0"/>
<path d="M369.767 360.369H367.282V362.857H369.767V360.369Z" fill="#F0F0F0"/>
<path d="M369.767 364.545H367.282V367.033H369.767V364.545Z" fill="#F0F0F0"/>
<path d="M369.767 368.722H367.282V371.21H369.767V368.722Z" fill="#F0F0F0"/>
<path d="M369.767 372.888H367.282V375.376H369.767V372.888Z" fill="#F0F0F0"/>
<path d="M369.767 377.064H367.282V379.552H369.767V377.064Z" fill="#F0F0F0"/>
<path d="M369.767 381.241H367.282V383.729H369.767V381.241Z" fill="#F0F0F0"/>
<path d="M369.767 385.417H367.282V387.905H369.767V385.417Z" fill="#F0F0F0"/>
<path d="M369.767 389.594H367.282V392.082H369.767V389.594Z" fill="#F0F0F0"/>
<path d="M369.767 393.77H367.282V396.258H369.767V393.77Z" fill="#F0F0F0"/>
<path d="M369.767 397.946H367.282V400.434H369.767V397.946Z" fill="#F0F0F0"/>
<path d="M369.767 402.123H367.282V404.611H369.767V402.123Z" fill="#F0F0F0"/>
<path d="M369.767 406.299H367.282V408.787H369.767V406.299Z" fill="#F0F0F0"/>
<path d="M369.767 414.642H367.282V417.13H369.767V414.642Z" fill="#F0F0F0"/>
<path d="M369.767 422.995H367.282V425.482H369.767V422.995Z" fill="#F0F0F0"/>
<path d="M369.767 427.171H367.282V429.659H369.767V427.171Z" fill="#F0F0F0"/>
<path d="M369.767 431.347H367.282V433.835H369.767V431.347Z" fill="#F0F0F0"/>
<path d="M369.767 435.524H367.282V438.012H369.767V435.524Z" fill="#F0F0F0"/>
<path d="M369.767 439.7H367.282V442.188H369.767V439.7Z" fill="#F0F0F0"/>
<path d="M393.761 375.825H391.276V378.313H393.761V375.825Z" fill="#F0F0F0"/>
<path d="M393.761 380.002H391.276V382.49H393.761V380.002Z" fill="#F0F0F0"/>
<path d="M393.761 384.168H391.276V386.656H393.761V384.168Z" fill="#F0F0F0"/>
<path d="M393.761 388.345H391.276V390.833H393.761V388.345Z" fill="#F0F0F0"/>
<path d="M393.761 392.521H391.276V395.009H393.761V392.521Z" fill="#F0F0F0"/>
<path d="M393.761 396.698H391.276V399.185H393.761V396.698Z" fill="#F0F0F0"/>
<path d="M393.761 409.227H391.276V411.714H393.761V409.227Z" fill="#F0F0F0"/>
<path d="M393.761 413.403H391.276V415.891H393.761V413.403Z" fill="#F0F0F0"/>
<path d="M393.761 417.579H391.276V420.067H393.761V417.579Z" fill="#F0F0F0"/>
<path d="M393.761 421.756H391.276V424.243H393.761V421.756Z" fill="#F0F0F0"/>
<path d="M393.761 425.922H391.276V428.41H393.761V425.922Z" fill="#F0F0F0"/>
<path d="M393.761 430.098H391.276V432.586H393.761V430.098Z" fill="#F0F0F0"/>
<path d="M393.761 434.275H391.276V436.763H393.761V434.275Z" fill="#F0F0F0"/>
<path d="M389.818 375.825H387.333V378.313H389.818V375.825Z" fill="#F0F0F0"/>
<path d="M389.818 380.002H387.333V382.49H389.818V380.002Z" fill="#F0F0F0"/>
<path d="M389.818 384.168H387.333V386.656H389.818V384.168Z" fill="#F0F0F0"/>
<path d="M389.818 388.345H387.333V390.833H389.818V388.345Z" fill="#F0F0F0"/>
<path d="M389.818 392.521H387.333V395.009H389.818V392.521Z" fill="#F0F0F0"/>
<path d="M389.818 396.698H387.333V399.185H389.818V396.698Z" fill="#F0F0F0"/>
<path d="M389.818 409.227H387.333V411.714H389.818V409.227Z" fill="#F0F0F0"/>
<path d="M389.818 413.403H387.333V415.891H389.818V413.403Z" fill="#F0F0F0"/>
<path d="M389.818 417.579H387.333V420.067H389.818V417.579Z" fill="#F0F0F0"/>
<path d="M389.818 421.756H387.333V424.243H389.818V421.756Z" fill="#F0F0F0"/>
<path d="M389.818 425.922H387.333V428.41H389.818V425.922Z" fill="#F0F0F0"/>
<path d="M389.818 430.098H387.333V432.586H389.818V430.098Z" fill="#F0F0F0"/>
<path d="M389.818 438.451H387.333V440.939H389.818V438.451Z" fill="#F0F0F0"/>
<path d="M258.541 357.432H256.056V359.919H258.541V357.432Z" fill="#F0F0F0"/>
<path d="M258.541 361.608H256.056V364.096H258.541V361.608Z" fill="#F0F0F0"/>
<path d="M258.541 365.784H256.056V368.272H258.541V365.784Z" fill="#F0F0F0"/>
<path d="M258.541 369.961H256.056V372.449H258.541V369.961Z" fill="#F0F0F0"/>
<path d="M258.541 374.137H256.056V376.625H258.541V374.137Z" fill="#F0F0F0"/>
<path d="M258.541 378.313H256.056V380.801H258.541V378.313Z" fill="#F0F0F0"/>
<path d="M258.541 382.49H256.056V384.978H258.541V382.49Z" fill="#F0F0F0"/>
<path d="M258.541 386.666H256.056V389.154H258.541V386.666Z" fill="#F0F0F0"/>
<path d="M258.541 390.843H256.056V393.33H258.541V390.843Z" fill="#F0F0F0"/>
<path d="M258.541 395.019H256.056V397.507H258.541V395.019Z" fill="#F0F0F0"/>
<path d="M258.541 399.185H256.056V401.673H258.541V399.185Z" fill="#F0F0F0"/>
<path d="M258.541 407.538H256.056V410.026H258.541V407.538Z" fill="#F0F0F0"/>
<path d="M258.541 411.714H256.056V414.202H258.541V411.714Z" fill="#F0F0F0"/>
<path d="M258.541 415.891H256.056V418.378H258.541V415.891Z" fill="#F0F0F0"/>
<path d="M258.541 420.067H256.056V422.555H258.541V420.067Z" fill="#F0F0F0"/>
<path d="M258.541 424.243H256.056V426.731H258.541V424.243Z" fill="#F0F0F0"/>
<path d="M258.541 428.42H256.056V430.908H258.541V428.42Z" fill="#F0F0F0"/>
<path d="M258.541 432.596H256.056V435.084H258.541V432.596Z" fill="#F0F0F0"/>
<path d="M258.541 436.772H256.056V439.26H258.541V436.772Z" fill="#F0F0F0"/>
<path d="M254.589 357.432H252.104V359.919H254.589V357.432Z" fill="#F0F0F0"/>
<path d="M254.589 361.608H252.104V364.096H254.589V361.608Z" fill="#F0F0F0"/>
<path d="M254.589 365.784H252.104V368.272H254.589V365.784Z" fill="#F0F0F0"/>
<path d="M254.589 369.961H252.104V372.449H254.589V369.961Z" fill="#F0F0F0"/>
<path d="M254.589 374.137H252.104V376.625H254.589V374.137Z" fill="#F0F0F0"/>
<path d="M254.589 378.313H252.104V380.801H254.589V378.313Z" fill="#F0F0F0"/>
<path d="M254.589 382.49H252.104V384.978H254.589V382.49Z" fill="#F0F0F0"/>
<path d="M254.589 386.666H252.104V389.154H254.589V386.666Z" fill="#F0F0F0"/>
<path d="M254.589 390.843H252.104V393.33H254.589V390.843Z" fill="#F0F0F0"/>
<path d="M254.589 395.019H252.104V397.507H254.589V395.019Z" fill="#F0F0F0"/>
<path d="M254.589 399.185H252.104V401.673H254.589V399.185Z" fill="#F0F0F0"/>
<path d="M254.589 403.362H252.104V405.849H254.589V403.362Z" fill="#F0F0F0"/>
<path d="M254.589 407.538H252.104V410.026H254.589V407.538Z" fill="#F0F0F0"/>
<path d="M254.589 411.714H252.104V414.202H254.589V411.714Z" fill="#F0F0F0"/>
<path d="M254.589 415.891H252.104V418.378H254.589V415.891Z" fill="#F0F0F0"/>
<path d="M254.589 420.067H252.104V422.555H254.589V420.067Z" fill="#F0F0F0"/>
<path d="M254.589 424.243H252.104V426.731H254.589V424.243Z" fill="#F0F0F0"/>
<path d="M254.589 428.42H252.104V430.908H254.589V428.42Z" fill="#F0F0F0"/>
<path d="M254.589 432.596H252.104V435.084H254.589V432.596Z" fill="#F0F0F0"/>
<path d="M254.589 436.772H252.104V439.26H254.589V436.772Z" fill="#F0F0F0"/>
<path d="M278.004 373.698H275.519V376.185H278.004V373.698Z" fill="#F0F0F0"/>
<path d="M278.004 377.874H275.519V380.362H278.004V377.874Z" fill="#F0F0F0"/>
<path d="M278.004 382.05H275.519V384.538H278.004V382.05Z" fill="#F0F0F0"/>
<path d="M278.004 386.227H275.519V388.714H278.004V386.227Z" fill="#F0F0F0"/>
<path d="M278.004 390.403H275.519V392.891H278.004V390.403Z" fill="#F0F0F0"/>
<path d="M278.004 394.579H275.519V397.067H278.004V394.579Z" fill="#F0F0F0"/>
<path d="M278.004 398.746H275.519V401.233H278.004V398.746Z" fill="#F0F0F0"/>
<path d="M278.004 402.922H275.519V405.41H278.004V402.922Z" fill="#F0F0F0"/>
<path d="M278.004 407.098H275.519V409.586H278.004V407.098Z" fill="#F0F0F0"/>
<path d="M278.004 411.275H275.519V413.762H278.004V411.275Z" fill="#F0F0F0"/>
<path d="M274.052 373.698H271.566V376.185H274.052V373.698Z" fill="#F0F0F0"/>
<path d="M274.052 377.874H271.566V380.362H274.052V377.874Z" fill="#F0F0F0"/>
<path d="M274.052 382.05H271.566V384.538H274.052V382.05Z" fill="#F0F0F0"/>
<path d="M274.052 386.227H271.566V388.714H274.052V386.227Z" fill="#F0F0F0"/>
<path d="M274.052 390.403H271.566V392.891H274.052V390.403Z" fill="#F0F0F0"/>
<path d="M274.052 394.579H271.566V397.067H274.052V394.579Z" fill="#F0F0F0"/>
<path d="M274.052 398.746H271.566V401.233H274.052V398.746Z" fill="#F0F0F0"/>
<path d="M274.052 402.922H271.566V405.41H274.052V402.922Z" fill="#F0F0F0"/>
<path d="M274.052 407.098H271.566V409.586H274.052V407.098Z" fill="#F0F0F0"/>
<path d="M297.567 215.245H293.395V448.123H297.567V215.245Z" fill="#E0E0E0"/>
<path d="M376.115 215.245H371.943V448.123H376.115V215.245Z" fill="#E0E0E0"/>
<path d="M454.664 215.245H450.492V448.123H454.664V215.245Z" fill="#E0E0E0"/>
<path d="M187.888 479.655H153.364V429.869C153.364 427.441 155.33 425.462 157.766 425.462H183.496C185.922 425.462 187.898 427.431 187.898 429.869V479.655H187.888Z" fill="#F0F0F0"/>
<path d="M187.888 432.796H153.364V436.683H187.888V432.796Z" fill="#E6E6E6"/>
<path d="M181.6 473.091H172.996C171.689 473.091 170.631 474.15 170.631 475.459V479.655H183.965V475.459C183.965 474.15 182.907 473.091 181.6 473.091Z" fill="#E0E0E0"/>
<path d="M184.015 479.655H174.444C173.595 479.655 172.907 478.966 172.907 478.117C172.907 477.267 173.595 476.578 174.444 476.578H184.015C184.864 476.578 185.552 477.267 185.552 478.117C185.542 478.966 184.854 479.655 184.015 479.655Z" fill="#E6E6E6"/>
<path d="M337.288 204.287C349.922 201.301 357.745 188.628 354.762 175.981C351.779 163.334 339.119 155.503 326.486 158.489C313.852 161.475 306.029 174.148 309.012 186.795C311.995 199.442 324.655 207.273 337.288 204.287Z" fill="#E0E0E0"/>
<path d="M335.109 201.154C346.007 199.384 353.408 189.104 351.64 178.194C349.871 167.284 339.602 159.875 328.703 161.646C317.805 163.416 310.404 173.696 312.172 184.606C313.941 195.516 324.21 202.925 335.109 201.154Z" fill="#F0F0F0"/>
<path d="M332.849 167.677V181.665L342.111 176.419" fill="#F0F0F0"/>
<path d="M332.849 167.677V181.665L342.111 176.419" stroke="#E0E0E0" stroke-width="2" stroke-miterlimit="10" stroke-linecap="round" stroke-linejoin="round"/>
<path d="M106.964 411.075C105.167 408.118 102.213 410.685 102.213 410.685C102.632 405.01 97.422 401.134 97.422 401.134C97.422 401.134 103.48 401.134 104.329 395.349C105.177 389.564 102.213 392.251 99.4381 392.211C96.6634 392.171 93.759 400.294 97.422 404.85C101.085 409.416 100.097 417.21 91.6531 424.703C89.5871 426.531 88.1898 428.969 87.2416 431.597C87.8804 424.713 88.2397 415.012 86.2136 408.537C82.7802 397.537 89.3276 394.579 91.2239 389.074C93.1302 383.569 86.2136 378.923 86.2136 378.923C86.2136 378.923 92.711 375.966 89.5372 372.578C86.3633 369.191 79.8159 369.651 79.8159 374.077C79.8159 378.503 84.2573 380.192 84.2573 380.192C84.2573 380.192 89.3276 385.477 89.3276 388.235C89.3276 390.982 84.2573 396.907 84.2573 396.907C84.2573 396.907 86.5828 391.842 81.9318 391.622C77.2808 391.402 75.8036 397.537 77.7099 400.294C79.6163 403.042 82.7802 400.714 82.7802 400.714C82.7802 400.714 83.1495 406.639 84.2374 410.236C84.7164 411.814 84.4869 418.019 84.0877 424.473C83.1495 422.145 81.832 420.007 79.9756 418.359C71.5219 410.865 70.5437 403.072 74.2067 398.506C77.8696 393.94 74.9652 385.827 72.1906 385.867C69.4159 385.907 66.4516 383.209 67.3 389.004C68.1484 394.799 74.2067 394.789 74.2067 394.789C74.2067 394.789 68.9868 398.676 69.4159 404.341C69.4159 404.341 66.4616 401.763 64.6651 404.73C61.4612 410.016 68.8869 413.293 70.1445 410.695C70.1445 410.695 85.9042 421.866 82.1015 437.942L82.9898 439.25C82.88 440.549 82.8001 441.329 82.8001 441.329L84.0377 440.799L85.445 442.867C85.3752 446.884 85.8043 449.851 85.8043 449.851L89.5771 444.286C85.7744 428.21 101.534 417.04 101.534 417.04C102.742 419.637 110.177 416.36 106.964 411.075Z" fill="#E0E0E0"/>
<path opacity="0.2" d="M106.964 411.075C105.167 408.118 102.213 410.685 102.213 410.685C102.632 405.01 97.422 401.134 97.422 401.134C97.422 401.134 103.48 401.134 104.329 395.349C105.177 389.564 102.213 392.251 99.4381 392.211C96.6634 392.171 93.759 400.294 97.422 404.85C101.085 409.416 100.097 417.21 91.6531 424.703C89.5871 426.531 88.1898 428.969 87.2416 431.597C87.8804 424.713 88.2397 415.012 86.2136 408.537C82.7802 397.537 89.3276 394.579 91.2239 389.074C93.1302 383.569 86.2136 378.923 86.2136 378.923C86.2136 378.923 92.711 375.966 89.5372 372.578C86.3633 369.191 79.8159 369.651 79.8159 374.077C79.8159 378.503 84.2573 380.192 84.2573 380.192C84.2573 380.192 89.3276 385.477 89.3276 388.235C89.3276 390.982 84.2573 396.907 84.2573 396.907C84.2573 396.907 86.5828 391.842 81.9318 391.622C77.2808 391.402 75.8036 397.537 77.7099 400.294C79.6163 403.042 82.7802 400.714 82.7802 400.714C82.7802 400.714 83.1495 406.639 84.2374 410.236C84.7164 411.814 84.4869 418.019 84.0877 424.473C83.1495 422.145 81.832 420.007 79.9756 418.359C71.5219 410.865 70.5437 403.072 74.2067 398.506C77.8696 393.94 74.9652 385.827 72.1906 385.867C69.4159 385.907 66.4516 383.209 67.3 389.004C68.1484 394.799 74.2067 394.789 74.2067 394.789C74.2067 394.789 68.9868 398.676 69.4159 404.341C69.4159 404.341 66.4616 401.763 64.6651 404.73C61.4612 410.016 68.8869 413.293 70.1445 410.695C70.1445 410.695 85.9042 421.866 82.1015 437.942L82.9898 439.25C82.88 440.549 82.8001 441.329 82.8001 441.329L84.0377 440.799L85.445 442.867C85.3752 446.884 85.8043 449.851 85.8043 449.851L89.5771 444.286C85.7744 428.21 101.534 417.04 101.534 417.04C102.742 419.637 110.177 416.36 106.964 411.075Z" fill="#E0E0E0"/>
<path d="M103.89 479.655H67.7792L63.8867 440.08H107.782L103.89 479.655Z" fill="#E6E6E6"/>
<path d="M109.708 435.713H61.9604V444.446H109.708V435.713Z" fill="#F0F0F0"/>
<path d="M259.74 524.896C366.616 524.896 453.257 519.832 453.257 513.586C453.257 507.339 366.616 502.275 259.74 502.275C152.863 502.275 66.2227 507.339 66.2227 513.586C66.2227 519.832 152.863 524.896 259.74 524.896Z" fill="#F5F5F5"/>
<path d="M419.881 482.093C420.031 481.074 423.524 456.945 416.527 448.612C414.98 446.764 413.024 445.805 410.719 445.745C396.596 445.415 394.66 456.775 394.64 456.885L396.306 457.145C396.366 456.735 398.043 447.124 410.679 447.433C412.505 447.473 414.002 448.223 415.24 449.701C421.757 457.455 418.254 481.604 418.214 481.843L419.881 482.093Z" fill="#FFBEDD"/>
<path d="M420.74 480.994L422.426 480.944C422.416 480.724 421.868 458.713 432.697 454.167C443.316 449.711 448.087 458.873 448.287 459.263L449.794 458.504C449.734 458.394 444.135 447.533 432.048 452.609C420.141 457.594 420.71 480.035 420.74 480.994Z" fill="#FFBEDD"/>
<path d="M420.69 482.723C420.69 482.373 420.79 447.563 427.566 437.382C434.074 427.611 444.574 432.207 445.023 432.406L445.721 430.868C445.602 430.808 433.485 425.462 426.169 436.443C419.113 447.044 419.003 481.264 419.003 482.723H420.69Z" fill="#FFBEDD"/>
<path d="M408.703 446.584C408.703 446.584 414.871 448.862 413.034 454.237C411.198 459.613 391.695 468.455 391.695 468.455C391.695 468.455 383.531 460.961 391.027 448.772C398.532 436.573 408.533 442.737 408.703 446.584Z" fill="#53B175"/>
<path d="M427.876 435.544C427.876 435.544 423.494 435.074 423.853 432.406C424.203 429.739 440.871 422.865 450.712 433.975C450.712 433.975 444.414 444.805 435.311 444.945C426.199 445.085 427.876 435.544 427.876 435.544Z" fill="#53B175"/>
<path d="M432.367 453.378C432.367 453.378 429.343 450.94 432.607 449.741C435.87 448.552 451.869 448.892 452.039 464.758C452.039 464.758 433.405 467.855 431.099 461.811C428.784 455.776 432.367 453.378 432.367 453.378Z" fill="#53B175"/>
<path d="M405.379 514.415H434.303L437.427 482.713H402.265L405.379 514.415Z" fill="#85F0AC"/>
<path d="M400.725 486.219H438.971V479.225H400.725V486.219Z" fill="#AB7A19"/>
<path d="M372.652 491.694L343.897 488.867V448.412H332.499V488.857L303.625 491.694C300.76 491.974 298.575 494.392 298.575 497.27V501.596H337.081H339.196H377.702V497.27C377.702 494.392 375.516 491.974 372.652 491.694Z" fill="#263238"/>
<path opacity="0.2" d="M372.652 491.694L343.897 488.867V448.412H332.499V488.857L303.625 491.694C300.76 491.974 298.575 494.392 298.575 497.27V501.596H337.081H339.196H377.702V497.27C377.702 494.392 375.516 491.974 372.652 491.694Z" fill="white"/>
<path d="M301.609 514.425C305.727 514.425 309.065 511.083 309.065 506.961C309.065 502.839 305.727 499.498 301.609 499.498C297.491 499.498 294.153 502.839 294.153 506.961C294.153 511.083 297.491 514.425 301.609 514.425Z" fill="#263238"/>
<path d="M374.658 514.425C378.776 514.425 382.114 511.083 382.114 506.961C382.114 502.839 378.776 499.498 374.658 499.498C370.541 499.498 367.203 502.839 367.203 506.961C367.203 511.083 370.541 514.425 374.658 514.425Z" fill="#263238"/>
<path d="M341.732 457.105H334.655C332.38 457.105 330.533 455.256 330.533 452.978V421.076H345.854V452.978C345.854 455.256 344.007 457.105 341.732 457.105Z" fill="#263238"/>
<path opacity="0.3" d="M341.732 457.105H334.655C332.38 457.105 330.533 455.256 330.533 452.978V421.076H345.854V452.978C345.854 455.256 344.007 457.105 341.732 457.105Z" fill="white"/>
<path d="M365.436 357.831C365.436 357.831 367.612 411.784 352.601 421.066H369.728C369.728 421.066 383.002 402.682 379.249 357.831H365.436Z" fill="#263238"/>
<path opacity="0.3" d="M365.436 357.831C365.436 357.831 367.612 411.784 352.601 421.066H369.728C369.728 421.066 383.002 402.682 379.249 357.831H365.436Z" fill="white"/>
<path d="M303.795 413.523H370.586C373.341 413.523 375.576 415.761 375.576 418.518V425.203H298.804V418.518C298.804 415.761 301.03 413.523 303.795 413.523Z" fill="#263238"/>
<path d="M297.607 419.367H376.764C377.872 419.367 378.77 420.267 378.77 421.376V423.194C378.77 424.303 377.872 425.202 376.764 425.202H297.607C296.499 425.202 295.601 424.303 295.601 423.194V421.376C295.601 420.267 296.499 419.367 297.607 419.367Z" fill="#263238"/>
<path opacity="0.6" d="M297.607 419.367H376.764C377.872 419.367 378.77 420.267 378.77 421.376V423.194C378.77 424.303 377.872 425.202 376.764 425.202H297.607C296.499 425.202 295.601 424.303 295.601 423.194V421.376C295.601 420.267 296.499 419.367 297.607 419.367Z" fill="white"/>
<path d="M383.461 368.792H356.014C347.979 368.792 341.462 362.267 341.462 354.224V343.484C341.462 335.441 347.979 328.916 356.014 328.916H383.451C391.486 328.916 398.003 335.441 398.003 343.484V354.224C398.013 362.267 391.496 368.792 383.461 368.792Z" fill="#263238"/>
<path d="M272.764 284.825L267.285 270.367C267.285 270.367 269.63 268.189 268.024 265.981C266.417 263.773 256.306 257.558 254.46 258.657C252.613 259.747 248.531 263.863 250.737 266.151C252.953 268.439 262.744 272.246 262.744 272.246L267.584 291.219L272.764 284.825Z" fill="#FFCCAF"/>
<path d="M311.031 312.311C311.031 312.311 286.109 307.185 283.405 305.956C280.7 304.727 270.669 275.323 270.669 275.323L262.984 278.92C262.984 278.92 269.172 308.434 275.5 315.458C281.828 322.472 308.826 328.417 308.826 328.417L311.031 312.311Z" fill="#58C881"/>
<path d="M270.789 274.743L272.376 277.811L262.495 281.218L262.874 277.471L270.789 274.743Z" fill="#AB7A19"/>
<path d="M346.163 291.948C346.163 291.948 347.63 305.766 342.51 309.163C337.4 312.56 312.239 308.584 309.384 303.019C306.53 297.464 317.269 282.367 317.269 282.367L346.163 291.948Z" fill="#263238"/>
<path d="M244.369 473.77L250.927 475.359L254.25 466.287L257.264 458.034L249.789 454.847L246.914 464.858L244.369 473.77Z" fill="#FFCCAF"/>
<path opacity="0.2" d="M246.915 464.858L254.25 466.287L257.265 458.034L249.789 454.847L246.915 464.858Z" fill="black"/>
<path d="M247.573 460.072L256.676 463.459C256.676 463.459 280.959 402.682 285.949 402.472C290.94 402.262 341.752 425.642 354.487 412.673C367.223 399.715 348.808 368.472 348.808 368.472C348.808 368.472 318.177 364.096 315.872 371.02C315.423 372.358 314.933 374.986 314.574 377.234C314.225 379.352 313.985 381.131 313.985 381.131C313.985 381.131 313.975 381.131 313.965 381.121C313.017 380.881 282.266 372.938 270.15 381.131C257.843 389.464 247.573 460.072 247.573 460.072Z" fill="#85F0AC"/>
<path d="M299.932 499.698L306.47 498.019L305.212 488.627L304.044 480.015L295.96 480.744L298.056 490.785L299.932 499.698Z" fill="#FFCCAF"/>
<path opacity="0.2" d="M298.106 490.985L305.262 488.807L304.064 480.105L295.97 480.794L298.106 490.985Z" fill="black"/>
<path d="M260.439 460.082L247.184 455.576L246.615 461.011L256.666 464.568L260.439 460.082Z" fill="#AB7A19"/>
<path d="M332.49 415.791C332.49 415.791 330.414 415.84 298.286 414.342C298.286 414.342 303.086 454.557 305.711 484.651L296.1 486.289C296.1 486.289 273.144 421.835 273.394 411.594C273.643 401.353 285.371 398.356 285.371 398.356C285.371 398.356 308.266 411.594 332.49 415.791Z" fill="#74DE9A"/>
<path d="M307.119 481.733L293.914 483.242L296.459 488.417L307.149 487.049L307.119 481.733Z" fill="#AB7A19"/>
<path opacity="0.1" d="M313.985 381.131L331.901 384.867C331.901 384.867 322 379.392 314.574 377.234C314.225 379.352 313.985 381.131 313.985 381.131Z" fill="black"/>
<path d="M348.07 363.706L348.808 368.472L315.872 371.02L315.003 365.375L348.07 363.706Z" fill="#263238"/>
<path opacity="0.2" d="M348.07 363.706L348.808 368.472L315.872 371.02L315.003 365.375L348.07 363.706Z" fill="black"/>
<path d="M337.66 371.685L339.288 371.517L338.436 363.218L336.807 363.385L337.66 371.685Z" fill="#AB7A19"/>
<path d="M323.081 370.846L330.292 370.382L329.94 364.908L322.729 365.372L323.081 370.846Z" fill="white"/>
<path d="M317.491 372.579L319.12 372.412L318.267 364.113L316.639 364.281L317.491 372.579Z" fill="#AB7A19"/>
<path opacity="0.6" d="M337.66 371.685L339.288 371.517L338.436 363.218L336.807 363.385L337.66 371.685Z" fill="white"/>
<path opacity="0.6" d="M317.491 372.579L319.12 372.412L318.267 364.113L316.639 364.281L317.491 372.579Z" fill="white"/>
<path d="M310.432 311.851C310.432 311.851 318.836 314.489 329.406 313.949C339.975 313.41 352.611 318.545 352.611 318.545L348.07 363.696L315.003 365.364C315.003 365.374 303.895 327.667 310.432 311.851Z" fill="#85F0AC"/>
<path d="M315.742 286.353C315.742 286.353 317.598 264.422 335.913 272.395C358.899 282.397 340.624 309.103 329.395 303.618C318.167 298.143 315.742 286.353 315.742 286.353Z" fill="#263238"/>
<path opacity="0.2" d="M320.872 315.178L321.401 327.568L325.503 321.743C325.503 321.743 324.036 335.451 324.894 342.904C324.894 342.904 325.683 329.526 327.539 321.743L331.901 327.568L338.159 315.258C338.169 315.258 328.038 311.611 320.872 315.178Z" fill="black"/>
<path d="M326.551 317.486L336.023 314.808C330.184 310.792 333.129 301.8 333.129 301.8L323.747 305.097C324.246 306.656 324.565 307.974 324.755 309.113C325.733 314.968 323.088 315.438 323.088 315.438L326.551 317.486Z" fill="#FFCCAF"/>
<path opacity="0.2" d="M323.747 305.097C324.246 306.656 324.565 307.974 324.755 309.113C329.246 307.315 333.128 301.8 333.128 301.8L323.747 305.097Z" fill="black"/>
<path d="M329.865 277.001C321.561 275.163 317.898 279.02 315.393 287.452C312.269 297.993 312.957 306.126 323.846 306.136C338.648 306.156 343.658 280.059 329.865 277.001Z" fill="#FFCCAF"/>
<path d="M320.872 288.182C320.872 288.182 319.245 290.1 317.688 291.099C317.688 291.099 318.147 292.388 319.674 292.528L320.872 288.182Z" fill="#DE5753"/>
<path d="M326.102 288.622C325.932 289.301 326.162 289.94 326.621 290.05C327.07 290.16 327.579 289.701 327.739 289.021C327.908 288.342 327.679 287.702 327.22 287.592C326.77 287.483 326.271 287.942 326.102 288.622Z" fill="#263238"/>
<path d="M327.408 287.672L326.071 286.733C326.071 286.733 326.5 288.162 327.408 287.672Z" fill="#263238"/>
<path d="M317.698 286.403C317.528 287.083 317.758 287.722 318.217 287.832C318.666 287.942 319.175 287.483 319.335 286.803C319.504 286.124 319.275 285.484 318.816 285.374C318.367 285.264 317.868 285.724 317.698 286.403Z" fill="#263238"/>
<path d="M319.004 285.454L317.667 284.515C317.667 284.515 318.096 285.934 319.004 285.454Z" fill="#263238"/>
<path d="M327.459 282.896C327.459 282.896 329.864 283.106 330.783 284.955" stroke="#263238" stroke-width="0.7247" stroke-miterlimit="10" stroke-linecap="round" stroke-linejoin="round"/>
<path d="M321.501 281.208C321.501 281.208 320.154 280.339 318.038 281.158" stroke="#263238" stroke-width="0.7247" stroke-miterlimit="10" stroke-linecap="round" stroke-linejoin="round"/>
<path d="M335.843 293.028C335.843 293.028 333.468 285.334 335.224 280.189C335.224 280.189 320.253 269.808 315.742 286.354C315.742 286.354 317.418 271.147 331.771 273.974C346.103 276.802 341.442 297.704 332.689 302.3C332.689 302.31 337.3 297.834 335.843 293.028Z" fill="#263238"/>
<path d="M334.096 294.476C334.446 293.147 336.332 291.189 338.757 292.008C341.273 292.858 341.322 298.423 334.645 298.273C333.687 298.263 333.368 297.254 334.096 294.476Z" fill="#E4897B"/>
<path d="M318.187 295.675C318.476 296.774 318.616 298.763 318.616 298.763C318.796 298.783 318.985 298.803 319.165 298.813C321.64 299.022 322.868 298.303 323.467 297.434C323.796 296.964 323.926 296.435 323.986 296.005C324.056 295.505 323.986 295.136 323.986 295.136C322.609 295.805 320.273 295.795 319.035 295.725C318.506 295.715 318.187 295.675 318.187 295.675Z" fill="#263238"/>
<path d="M319.035 295.735L319.185 296.644C321.52 296.834 323.197 296.664 323.986 296.015C324.056 295.515 323.986 295.146 323.986 295.146C322.598 295.815 320.273 295.795 319.035 295.735Z" fill="white"/>
<path d="M319.165 298.822C321.64 299.032 322.868 298.313 323.467 297.444C322.618 297.404 321.59 297.454 320.662 297.753C319.954 297.983 319.484 298.393 319.165 298.822Z" fill="#DE5753"/>
<path d="M329.895 277.661C329.895 277.661 330.214 292.088 338.857 293.817C347.501 295.545 338.049 275.283 338.049 275.283C338.049 275.283 325.174 266.87 316.6 272.795C308.017 278.73 315.732 286.353 315.732 286.353C315.732 286.353 317.558 275.643 329.895 277.661Z" fill="#263238"/>
<path d="M330.194 276.712C330.194 276.712 327.11 285.834 333.198 290.62" stroke="#263238" stroke-width="0.5" stroke-miterlimit="10" stroke-linecap="round" stroke-linejoin="round"/>
<path d="M341.383 296.784C340.285 299.722 337.46 301.37 335.075 300.471C332.689 299.572 331.651 296.474 332.749 293.537C333.847 290.6 336.672 288.951 339.057 289.85C341.442 290.749 342.49 293.857 341.383 296.784Z" fill="#AB7A19"/>
<path opacity="0.4" d="M341.383 296.784C340.285 299.722 337.46 301.37 335.075 300.471C332.689 299.572 331.651 296.474 332.749 293.537C333.847 290.6 336.672 288.951 339.057 289.85C341.442 290.749 342.49 293.857 341.383 296.784Z" fill="black"/>
<path d="M338.638 291.978C338.638 291.978 342.221 275.922 334.187 271.716C334.187 271.716 335.863 271.946 336.901 272.246C337.939 272.545 344.357 279.06 341.113 293.487L338.638 291.978Z" fill="white"/>
<path d="M323.567 301.17C323.367 301.14 323.167 301.11 322.968 301.08L323.127 300.091C330.364 301.27 335.743 297.444 335.793 297.404L336.382 298.213C336.162 298.373 330.932 302.139 323.567 301.17Z" fill="white"/>
<path d="M341.053 296.385C340.325 298.323 338.458 299.412 336.881 298.822C335.304 298.233 334.616 296.175 335.344 294.236C336.073 292.298 337.939 291.209 339.516 291.799C341.093 292.398 341.782 294.446 341.053 296.385Z" fill="#AB7A19"/>
<path d="M322.679 301.49L321.88 301.38C321.281 301.3 320.862 300.761 320.942 300.161C321.022 299.562 321.561 299.142 322.16 299.222L322.958 299.332C323.557 299.412 323.966 299.952 323.896 300.551C323.816 301.15 323.267 301.57 322.679 301.49Z" fill="#AB7A19"/>
<path opacity="0.4" d="M322.679 301.49L321.88 301.38C321.281 301.3 320.862 300.761 320.942 300.161C321.022 299.562 321.561 299.142 322.16 299.222L322.958 299.332C323.557 299.412 323.966 299.952 323.896 300.551C323.816 301.15 323.267 301.57 322.679 301.49Z" fill="black"/>
<path d="M333.478 311.372L327.549 317.197L329.915 324.34L338.169 315.258L333.478 311.372Z" fill="#AB7A19"/>
<path d="M324.904 312.59L325.862 317.076L322.788 323.421L320.872 315.178L324.904 312.59Z" fill="#AB7A19"/>
<path d="M332.21 316.427L335.653 303.808C335.653 303.808 333.987 300.661 334.346 300.011C334.705 299.352 336.502 290.879 337.779 289.96C339.057 289.041 344.307 290.61 344.846 291.469C345.375 292.328 339.815 303.808 339.815 303.808L337.789 317.476L332.21 316.427Z" fill="#FFCCAF"/>
<path d="M352.611 318.545C362.083 328.257 343.089 350.258 332.21 349.319C321.331 348.379 332.48 308.494 332.48 308.494L339.446 309.643C339.446 309.643 337.001 326.908 337.769 328.257C338.548 329.616 349.427 315.288 352.611 318.545Z" fill="#58C881"/>
<path d="M331.901 307.215L330.873 310.512L340.584 311.372V308.494L331.901 307.215Z" fill="#AB7A19"/>
<path opacity="0.6" d="M317.189 342.315H313.257C312.818 342.315 312.468 341.965 312.468 341.525V334.092C312.468 333.652 312.818 333.302 313.257 333.302H317.189C317.628 333.302 317.978 333.652 317.978 334.092V341.525C317.978 341.965 317.628 342.315 317.189 342.315Z" fill="white"/>
<path opacity="0.2" d="M317.269 333.892H312.798V340.017H317.269V333.892Z" fill="black"/>
<path d="M315.622 331.134H314.634V334.741H315.622V331.134Z" fill="#263238"/>
<path d="M233.5 486.539C234.498 486.079 235.576 485.81 236.664 485.73C236.664 485.73 240.457 483.492 244.21 474.819L248.432 474.799C249.899 474.819 251.186 475.749 251.675 477.127C251.745 477.317 251.785 477.517 251.795 477.717C251.755 478.736 251.645 479.755 251.466 480.764C251.086 483.931 249 490.715 249 490.715L248.282 490.536L249.579 484.221C250.009 482.073 247.763 484.151 246.715 486.309C245.667 488.467 244.07 490.646 239.399 489.576C233.989 488.298 231.794 487.518 233.5 486.539Z" fill="#172176"/>
<path d="M244.978 472.541C244.978 472.541 239.698 483.592 236.664 485.73C236.664 485.73 240.736 488.158 244.978 482.752C250.457 475.758 251.805 477.707 251.805 477.707C251.805 477.707 251.575 475.309 251.146 474.14C250.318 471.882 244.978 472.541 244.978 472.541Z" fill="#FFCCAF"/>
<path d="M291.608 512.866C292.467 512.187 293.445 511.667 294.493 511.327C294.493 511.327 297.647 508.26 299.244 498.938L303.346 497.909C304.773 497.58 306.25 498.169 307.048 499.398C307.158 499.568 307.248 499.748 307.308 499.937C307.508 500.937 307.647 501.956 307.717 502.975C308.096 506.142 307.677 513.226 307.677 513.226L306.939 513.216L306.709 506.771C306.619 504.583 304.923 507.131 304.424 509.479C303.924 511.827 302.877 514.325 298.096 514.395C292.497 514.465 290.181 514.225 291.608 512.866Z" fill="#172176"/>
<path d="M299.443 496.55C299.443 496.55 296.938 508.54 294.493 511.328C294.493 511.328 299.024 512.726 301.859 506.462C305.531 498.359 307.298 499.947 307.298 499.947C307.298 499.947 306.51 497.679 305.811 496.64C304.473 494.642 299.443 496.55 299.443 496.55Z" fill="#FFCCAF"/>
<path d="M392.244 279.769H357.391C354.597 279.769 352.331 277.501 352.331 274.704V259.777C352.331 256.979 354.597 254.711 357.391 254.711H392.244C395.039 254.711 397.294 256.979 397.294 259.777V274.704C397.304 277.501 395.039 279.769 392.244 279.769Z" fill="#53B175"/>
<path d="M364.388 276.912L353.898 291.199L370.835 277.871L364.388 276.912Z" fill="#53B175"/>
<path d="M364.787 267.24C364.787 268.049 364.128 268.719 363.31 268.719C362.491 268.719 361.833 268.059 361.833 267.24C361.833 266.431 362.491 265.761 363.31 265.761C364.128 265.761 364.787 266.431 364.787 267.24Z" fill="white"/>
<path d="M372.462 267.24C372.462 268.049 371.803 268.719 370.985 268.719C370.177 268.719 369.508 268.059 369.508 267.24C369.508 266.431 370.167 265.761 370.985 265.761C371.803 265.771 372.462 266.431 372.462 267.24Z" fill="white"/>
<path d="M380.137 267.24C380.137 268.049 379.479 268.719 378.66 268.719C377.842 268.719 377.183 268.059 377.183 267.24C377.183 266.431 377.842 265.761 378.66 265.761C379.479 265.761 380.137 266.431 380.137 267.24Z" fill="white"/>
<path d="M387.802 267.24C387.802 268.049 387.144 268.719 386.325 268.719C385.507 268.719 384.848 268.059 384.848 267.24C384.848 266.431 385.507 265.761 386.325 265.761C387.144 265.761 387.802 266.431 387.802 267.24Z" fill="white"/>
<path d="M252.184 260.066L227.332 246.668C226.663 246.308 226.404 245.469 226.773 244.79L234.698 230.063C235.057 229.393 235.896 229.133 236.574 229.503L261.426 242.901C262.095 243.261 262.355 244.1 261.985 244.78L254.061 259.507C253.701 260.176 252.863 260.436 252.184 260.066Z" fill="#85F0AC"/>
<path opacity="0.2" d="M234.049 231.281L241.824 245.819C242.433 246.948 243.661 247.607 244.928 247.477L261.107 245.879L244.629 248.307C243.152 248.526 241.705 247.747 241.076 246.388L234.049 231.281Z" fill="black"/>
<path d="M215.175 228.574C215.435 223.019 219.547 211.818 224.547 208.391C229.548 204.964 226.254 209.71 226.254 209.71C226.254 209.71 230.995 205.094 233.49 205.234C235.995 205.364 233.49 208.261 233.49 208.261C233.49 208.261 238.62 205.094 240.995 205.224C243.361 205.354 240.995 208.122 240.995 208.122C240.995 208.122 245.207 205.094 246.914 206.543C248.621 207.992 225.066 223.538 222.431 229.863C219.806 236.187 214.906 234.199 215.175 228.574Z" fill="#53B175"/>
<path d="M235.406 227.754L238.55 229.773C238.78 229.923 238.66 230.272 238.39 230.252L235.087 229.992L235.366 232.53C235.396 232.81 235.057 232.96 234.867 232.75L232.961 230.592L235.406 227.754Z" fill="#AB7A19"/>
<path opacity="0.3" d="M235.406 227.754L238.55 229.773C238.78 229.923 238.66 230.272 238.39 230.252L235.087 229.992L235.366 232.53C235.396 232.81 235.057 232.96 234.867 232.75L232.961 230.592L235.406 227.754Z" fill="white"/>
<path d="M191.251 215.245C191.251 215.245 195.593 212.218 202.18 214.186C202.18 214.186 204.077 222.879 209.247 225.776C212.091 227.365 219.048 227.235 224.557 225.447C231.095 223.328 234.299 223.328 235.486 225.776C236.604 228.094 235.356 230.782 230.356 231.971C225.356 233.16 221.403 241.852 212.321 241.982C203.238 242.112 198.458 233 200.743 224.987C200.723 224.987 197.959 219.022 191.251 215.245Z" fill="#FFBEDD"/>
<path d="M232.971 227.425C232.971 227.674 232.772 227.864 232.532 227.864C232.293 227.864 232.083 227.664 232.083 227.425C232.083 227.175 232.283 226.975 232.532 226.975C232.782 226.975 232.971 227.185 232.971 227.425Z" fill="#263238"/>
<path d="M210.195 234.748C204.836 236.217 192.918 235.758 188.118 232.051C183.317 228.344 188.846 230.013 188.846 230.013C188.846 230.013 182.998 226.925 182.359 224.507C181.71 222.089 185.233 223.568 185.233 223.568C185.233 223.568 180.642 219.662 180.033 217.364C179.434 215.066 182.788 216.464 182.788 216.464C182.788 216.464 178.606 213.387 179.454 211.309C180.303 209.231 202.35 226.865 209.167 227.425C216.004 227.984 215.625 233.27 210.195 234.748Z" fill="#53B175"/>
<path d="M175.073 210.07C174.134 209.74 173.186 209.42 172.228 209.131" stroke="#AB7A19" stroke-width="0.75" stroke-linecap="round" stroke-linejoin="round"/>
<path d="M166.39 207.642C162.896 206.913 159.333 206.433 155.8 206.183C146.099 205.504 130.878 204.545 124.939 214.226C119.52 223.049 128.842 238.095 132.146 246.288C136.198 256.32 141.018 268.719 136.228 279.34C126.387 301.161 84.2778 289.83 70.0752 269.728" stroke="#AB7A19" stroke-width="0.75" stroke-linecap="round" stroke-linejoin="round" stroke-dasharray="6.03 6.03"/>
<path d="M68.4681 267.2C67.969 266.321 67.5199 265.422 67.1406 264.512" stroke="#AB7A19" stroke-width="0.75" stroke-linecap="round" stroke-linejoin="round"/>
<path d="M189.685 346.531H151.798V354.304H189.685V346.531Z" fill="white"/>
<path opacity="0.1" d="M189.685 346.531H151.798V354.304H189.685V346.531Z" fill="black"/>
<path opacity="0.1" d="M167.757 346.531H151.798V354.304H167.757V346.531Z" fill="black"/>
<path opacity="0.1" d="M151.798 347.65H185.523L151.798 348.609V347.65Z" fill="black"/>
<path opacity="0.1" d="M189.685 348.999L160.451 349.728H189.685V348.999Z" fill="black"/>
<path opacity="0.1" d="M153.345 351.177L167.757 350.587L188.946 351.177L167.757 351.507L153.345 351.177Z" fill="black"/>
<path opacity="0.1" d="M151.798 352.825H176.77L151.798 353.415V352.825Z" fill="black"/>
<path opacity="0.1" d="M189.635 353.415L172.957 353.725H189.685L189.635 353.415Z" fill="black"/>
<path d="M184.415 338.758H146.528V346.531H184.415V338.758Z" fill="white"/>
<path opacity="0.1" d="M184.415 338.758H146.528V346.531H184.415V338.758Z" fill="black"/>
<path opacity="0.1" d="M162.487 338.758H146.528V346.531H162.487V338.758Z" fill="black"/>
<path opacity="0.1" d="M146.528 339.877H180.253L146.528 340.826V339.877Z" fill="black"/>
<path opacity="0.1" d="M184.415 341.226L155.181 341.945H184.415V341.226Z" fill="black"/>
<path opacity="0.1" d="M148.075 343.394L162.487 342.804L183.676 343.394L162.487 343.723L148.075 343.394Z" fill="black"/>
<path opacity="0.1" d="M146.528 345.042H171.5L146.528 345.642V345.042Z" fill="black"/>
<path opacity="0.1" d="M184.355 345.642L167.687 345.952H184.415L184.355 345.642Z" fill="black"/>
<path d="M188.737 330.975H150.85V338.748H188.737V330.975Z" fill="white"/>
<path opacity="0.1" d="M188.737 330.975H150.85V338.748H188.737V330.975Z" fill="black"/>
<path opacity="0.1" d="M166.809 330.975H150.85V338.748H166.809V330.975Z" fill="black"/>
<path opacity="0.1" d="M150.85 332.094H184.575L150.85 333.053V332.094Z" fill="black"/>
<path opacity="0.1" d="M188.737 333.442L159.503 334.172H188.737V333.442Z" fill="black"/>
<path opacity="0.1" d="M152.396 335.62L166.809 335.031L187.998 335.62L166.809 335.95L152.396 335.62Z" fill="black"/>
<path opacity="0.1" d="M150.85 337.269H175.821L150.85 337.859V337.269Z" fill="black"/>
<path opacity="0.1" d="M188.687 337.859L172.009 338.168H188.737L188.687 337.859Z" fill="black"/>
<path d="M213.978 354.144L214.966 350.418H255.438L274.072 352.286L274.781 354.144H213.978Z" fill="#263238"/>
<path opacity="0.4" d="M255.438 350.418V354.144H213.978L214.966 350.418H255.438Z" fill="black"/>
<path d="M247.303 332.583C247.483 334.552 246.046 336.15 244.09 336.15H182.089C180.123 336.15 178.386 334.552 178.207 332.583L174.524 292.848C174.484 292.438 174.514 292.049 174.604 291.689C174.953 290.29 176.181 289.281 177.738 289.281H239.738C241.704 289.281 243.441 290.88 243.621 292.848L247.303 332.583Z" fill="#263238"/>
<path opacity="0.4" d="M243.87 336.15H182.089C180.123 336.15 178.386 334.552 178.207 332.583L174.524 292.848C174.484 292.438 174.514 292.049 174.604 291.689H236.384C238.341 291.689 240.077 293.288 240.267 295.256L243.95 334.991C243.99 335.401 243.96 335.791 243.87 336.15Z" fill="white"/>
<path d="M201.272 311.781H214.107L210.684 348.54L230.965 351.587V354.145H188.247V351.587L197 348.54L201.272 311.781Z" fill="#263238"/>
<path opacity="0.1" d="M214.108 311.781L204.596 353.565L197 353.335L201.272 311.781H214.108Z" fill="white"/>
<path d="M214.048 514.415H207.93L196.941 361.298H205.055L214.048 514.415Z" fill="#263238"/>
<path opacity="0.4" d="M214.048 514.414H207.93L197.48 368.911L196.941 361.547H205.055L205.494 368.911L214.048 514.414Z" fill="white"/>
<path opacity="0.2" d="M205.494 368.541H197.48L196.941 361.547H205.055L205.494 368.541Z" fill="black"/>
<path d="M258.921 514.415H252.803L251.805 361.298H259.92L258.921 514.415Z" fill="#263238"/>
<path opacity="0.5" d="M259.92 361.547L259.76 386.256L258.921 514.414H252.803L251.965 386.256L251.805 361.547H259.92Z" fill="white"/>
<path opacity="0.2" d="M259.92 361.547L259.76 386.526H251.965L251.805 361.547H259.92Z" fill="black"/>
<path d="M323.836 514.415H317.718L306.729 361.298H314.843L323.836 514.415Z" fill="#263238"/>
<path opacity="0.5" d="M323.836 514.414H317.718L307.268 368.911L306.729 361.547H314.843L315.283 368.911L323.836 514.414Z" fill="white"/>
<path opacity="0.2" d="M315.283 368.541H307.268L306.729 361.547H314.843L315.283 368.541Z" fill="black"/>
<path d="M144.093 514.415H137.984L146.967 361.298H155.081L144.093 514.415Z" fill="#263238"/>
<path opacity="0.5" d="M155.081 361.547L154.542 368.911L144.093 514.414H137.984L146.528 368.911L146.967 361.547H155.081Z" fill="white"/>
<path opacity="0.2" d="M146.967 361.548H155.081L154.542 368.542H146.528L146.967 361.548Z" fill="black"/>
<path d="M319.115 365.135H142.695C141.508 365.135 140.54 364.166 140.54 362.977V357.472H321.271V362.977C321.271 364.166 320.313 365.135 319.115 365.135Z" fill="#53B175"/>
<path opacity="0.2" d="M321.271 357.472H140.54V361.308H321.271V357.472Z" fill="black"/>
<path d="M325.064 358.471H136.747C135.559 358.471 134.591 357.502 134.591 356.313C134.591 355.124 135.559 354.155 136.747 354.155H325.064C326.252 354.155 327.22 355.124 327.22 356.313C327.22 357.502 326.252 358.471 325.064 358.471Z" fill="#53B175"/>
<path d="M280.51 347.49L282.825 344.013C283.284 343.324 284.063 342.904 284.901 342.904H287.836C288.085 342.904 288.325 342.944 288.554 343.014L299.024 346.191C299.623 346.371 300.122 346.771 300.441 347.3L301.939 349.828L280.51 347.49Z" fill="#AB7A19"/>
<path opacity="0.2" d="M301.948 349.828L286.708 348.17L280.51 347.49L282.825 344.013C283.284 343.324 284.063 342.904 284.901 342.904H287.836C288.085 342.904 288.325 342.944 288.564 343.014L288.794 343.084L299.024 346.191C299.623 346.371 300.132 346.761 300.451 347.3L301.948 349.828Z" fill="black"/>
<path opacity="0.2" d="M301.949 349.828L286.708 348.17L288.794 343.084L299.024 346.192C299.623 346.371 300.132 346.761 300.451 347.301L301.949 349.828Z" fill="black"/>
<path d="M309.195 353.815V354.145H295.91H276.837L278.035 349.459C278.504 347.7 280.101 346.471 281.917 346.471H296.269C296.749 346.471 297.218 346.551 297.667 346.721L299.463 347.39L306.59 350.048C308.157 350.638 309.195 352.136 309.195 353.815Z" fill="#AB7A19"/>
<path opacity="0.2" d="M309.195 353.815V354.145H295.91L296.619 349.079C296.808 347.74 298.196 346.921 299.463 347.39L306.59 350.048C308.157 350.638 309.195 352.136 309.195 353.815Z" fill="black"/>
<path d="M297.976 350.708L302.198 338.009C302.378 337.459 303.006 337.209 303.525 337.469C303.915 337.669 304.114 338.119 304.005 338.548L300.441 352.106C300.451 352.096 298.076 353.056 297.976 350.708Z" fill="#263238"/>
<path opacity="0.2" d="M280.51 353.095H278.633L278.993 351.247H280.869L280.51 353.095Z" fill="black"/>
<path opacity="0.2" d="M283.305 353.025H281.428L281.788 351.177H283.664L283.305 353.025Z" fill="black"/>
</svg>
