<svg width="70" height="70" viewBox="0 0 70 70" fill="none" xmlns="http://www.w3.org/2000/svg">
<path opacity="0.15" d="M60 0H10C4.47715 0 0 4.47715 0 10V60C0 65.5229 4.47715 70 10 70H60C65.5229 70 70 65.5229 70 60V10C70 4.47715 65.5229 0 60 0Z" fill="#53B175"/>
<path d="M50.438 39.875H49.626V34.386C49.6247 33.7401 49.3672 33.1212 48.91 32.665L43.836 27.591C43.3798 27.1338 42.7609 26.8763 42.115 26.875H39.875V24.438C39.875 23.7916 39.6183 23.1716 39.1613 22.7144C38.7043 22.2572 38.0844 22.0003 37.438 22H21.188C20.5414 22 19.9213 22.2569 19.4641 22.7141C19.0069 23.1713 18.75 23.7914 18.75 24.438V40.688C18.75 41.3346 19.0069 41.9547 19.4641 42.4119C19.9213 42.8691 20.5414 43.126 21.188 43.126H22C22 44.4189 22.5136 45.6589 23.4279 46.5731C24.3421 47.4874 25.5821 48.001 26.875 48.001C28.1679 48.001 29.4079 47.4874 30.3221 46.5731C31.2364 45.6589 31.75 44.4189 31.75 43.126H38.25C38.25 44.4189 38.7636 45.6589 39.6779 46.5731C40.5921 47.4874 41.8321 48.001 43.125 48.001C44.4179 48.001 45.6579 47.4874 46.5721 46.5731C47.4864 45.6589 48 44.4189 48 43.126H50.438C50.6533 43.1255 50.8596 43.0398 51.0119 42.8876C51.1643 42.7355 51.2502 42.5293 51.251 42.314V40.688C51.2505 40.4725 51.1646 40.2661 51.0123 40.1137C50.8599 39.9614 50.6535 39.8755 50.438 39.875ZM26.875 45.563C26.3928 45.563 25.9214 45.42 25.5204 45.1521C25.1195 44.8841 24.807 44.5033 24.6225 44.0578C24.438 43.6122 24.3898 43.122 24.4839 42.649C24.5781 42.176 24.8104 41.7416 25.1514 41.4007C25.4925 41.0598 25.927 40.8277 26.4 40.7337C26.873 40.6398 27.3632 40.6882 27.8087 40.8729C28.2541 41.0575 28.6348 41.3702 28.9026 41.7712C29.1704 42.1723 29.3132 42.6438 29.313 43.126C29.3127 43.7724 29.0558 44.3923 28.5986 44.8493C28.1414 45.3063 27.5214 45.563 26.875 45.563ZM43.125 45.563C42.6428 45.563 42.1714 45.42 41.7704 45.1521C41.3695 44.8841 41.057 44.5033 40.8725 44.0578C40.688 43.6122 40.6398 43.122 40.7339 42.649C40.8281 42.176 41.0604 41.7416 41.4014 41.4007C41.7425 41.0598 42.177 40.8277 42.65 40.7337C43.123 40.6398 43.6132 40.6882 44.0587 40.8729C44.5041 41.0575 44.8848 41.3702 45.1526 41.7712C45.4204 42.1723 45.5632 42.6438 45.563 43.126C45.5627 43.7724 45.3058 44.3923 44.8486 44.8493C44.3914 45.3063 43.7714 45.563 43.125 45.563ZM47.188 35H39.875V29.313H42.114L47.187 34.386L47.188 35Z" fill="#53B175"/>
</svg>
