<svg width="32" height="33" viewBox="0 0 32 33" fill="none" xmlns="http://www.w3.org/2000/svg">
<path opacity="0.1" fill-rule="evenodd" clip-rule="evenodd" d="M0 16.5C0 7.66344 7.16344 0.5 16 0.5C24.8366 0.5 32 7.66344 32 16.5C32 25.3366 24.8366 32.5 16 32.5C7.16344 32.5 0 25.3366 0 16.5Z" fill="white"/>
<g clip-path="url(#clip0_562_13132)">
<path d="M13.9891 24.5V16.9923H12.0039V14.2892H13.9891V11.9804C13.9891 10.1661 15.1617 8.5 17.8638 8.5C18.9578 8.5 19.7668 8.60488 19.7668 8.60488L19.703 11.1291C19.703 11.1291 18.878 11.1211 17.9777 11.1211C17.0033 11.1211 16.8472 11.5701 16.8472 12.3154V14.2892H19.7805L19.6529 16.9923H16.8472V24.5H13.9891Z" fill="white"/>
</g>
<defs>
<clipPath id="clip0_562_13132">
<rect width="7.784" height="16" fill="white" transform="translate(12 8.5)"/>
</clipPath>
</defs>
</svg>
