<svg width="23" height="20" viewBox="0 0 23 20" fill="none" xmlns="http://www.w3.org/2000/svg">
<path d="M3.69423 9.00969L11.5183 16.8338L19.3424 9.00969C20.0342 8.31794 20.4228 7.37973 20.4228 6.40145C20.4228 5.42317 20.0342 4.48496 19.3424 3.79321C18.9999 3.4507 18.5933 3.179 18.1458 2.99363C17.6982 2.80826 17.2186 2.71285 16.7342 2.71285C15.7559 2.71285 14.8177 3.10147 14.126 3.79321L11.5183 6.40084L8.91071 3.79444C8.2172 3.11198 7.28211 2.7312 6.30912 2.73504C5.33613 2.73889 4.40408 3.12705 3.71599 3.81498C3.0279 4.50291 2.63952 5.43487 2.63544 6.40786C2.63136 7.38084 3.01193 8.31602 3.69423 9.00969ZM10.6491 2.05357L11.5183 2.92278L12.3875 2.05357C12.9574 1.47865 13.6353 1.02196 14.3822 0.709714C15.129 0.397469 15.9302 0.23582 16.7398 0.234047C17.5493 0.232274 18.3512 0.390413 19.0994 0.699384C19.8477 1.00836 20.5275 1.46207 21.0999 2.03449C21.6723 2.60691 22.1261 3.28675 22.435 4.03499C22.744 4.78323 22.9021 5.58513 22.9004 6.39465C22.8986 7.20417 22.7369 8.00536 22.4247 8.75224C22.1125 9.49912 21.6558 10.177 21.0808 10.7469L12.3888 19.4402C12.2746 19.5545 12.139 19.6452 11.9897 19.707C11.8405 19.7689 11.6805 19.8008 11.5189 19.8008C11.3574 19.8008 11.1974 19.7689 11.0481 19.707C10.8989 19.6452 10.7633 19.5545 10.6491 19.4402L1.95581 10.7481C1.37308 10.18 0.908936 9.50191 0.590319 8.75306C0.271702 8.00421 0.10495 7.19955 0.0997356 6.38576C0.0945214 5.57196 0.250949 4.76523 0.559944 4.01237C0.86894 3.2595 1.32435 2.57548 1.89976 1.99999C2.47517 1.42449 3.15913 0.968985 3.91195 0.659884C4.66478 0.350782 5.47149 0.19424 6.28528 0.199339C7.09908 0.204438 7.90376 0.371077 8.65265 0.689588C9.40154 1.0081 10.0797 1.47214 10.6479 2.0548L10.6491 2.05357Z" fill="#C3C3C3"/>
</svg>
