<svg width="141" height="19" viewBox="0 0 141 19" fill="none" xmlns="http://www.w3.org/2000/svg">
<path d="M1.10378 7.85425C0.934823 7.73123 0.862591 7.51452 0.92395 7.31473L1.00387 7.06496C1.0623 6.86756 1.23798 6.72781 1.44345 6.71527L7.82727 6.20573L10.2749 0.321007C10.357 0.114853 10.5631 -0.0144568 10.7844 0.00129377H11.0442C11.2528 -0.00313381 11.4413 0.12523 11.5137 0.321007L13.9713 6.20573L20.3551 6.71527C20.5606 6.72781 20.7363 6.86756 20.7947 7.06496L20.8746 7.31473C20.9426 7.50821 20.8828 7.72355 20.7248 7.85425L15.9094 11.9905L17.388 18.195C17.4367 18.3936 17.362 18.6021 17.1982 18.7245L16.9085 18.8844C16.7395 18.9986 16.518 18.9986 16.349 18.8844L10.9143 15.5873L5.44957 18.9143C5.28058 19.0286 5.05911 19.0286 4.89011 18.9143L4.67032 18.7645C4.50653 18.642 4.4318 18.4335 4.48051 18.2349L5.91912 11.9905L1.10378 7.85425Z" fill="#FFD855"/>
<path d="M31.1038 7.85425C30.9348 7.73123 30.8626 7.51452 30.9239 7.31473L31.0039 7.06496C31.0623 6.86756 31.238 6.72781 31.4434 6.71527L37.8273 6.20573L40.2749 0.321007C40.357 0.114853 40.5631 -0.0144568 40.7844 0.00129377H41.0442C41.2528 -0.00313381 41.4413 0.12523 41.5137 0.321007L43.9713 6.20573L50.3551 6.71527C50.5606 6.72781 50.7363 6.86756 50.7947 7.06496L50.8746 7.31473C50.9426 7.50821 50.8828 7.72355 50.7248 7.85425L45.9094 11.9905L47.388 18.195C47.4367 18.3936 47.362 18.6021 47.1982 18.7245L46.9085 18.8844C46.7395 18.9986 46.518 18.9986 46.349 18.8844L40.9143 15.5873L35.4496 18.9143C35.2806 19.0286 35.0591 19.0286 34.8901 18.9143L34.6703 18.7645C34.5065 18.642 34.4318 18.4335 34.4805 18.2349L35.9191 11.9905L31.1038 7.85425Z" fill="#FFD855"/>
<path d="M61.1038 7.85425C60.9348 7.73123 60.8626 7.51452 60.9239 7.31473L61.0039 7.06496C61.0623 6.86756 61.238 6.72781 61.4434 6.71527L67.8273 6.20573L70.2749 0.321007C70.357 0.114853 70.5631 -0.0144568 70.7844 0.00129377H71.0442C71.2528 -0.00313381 71.4413 0.12523 71.5137 0.321007L73.9713 6.20573L80.3551 6.71527C80.5606 6.72781 80.7363 6.86756 80.7947 7.06496L80.8746 7.31473C80.9426 7.50821 80.8828 7.72355 80.7248 7.85425L75.9094 11.9905L77.388 18.195C77.4367 18.3936 77.362 18.6021 77.1982 18.7245L76.9085 18.8844C76.7395 18.9986 76.518 18.9986 76.349 18.8844L70.9143 15.5873L65.4496 18.9143C65.2806 19.0286 65.0591 19.0286 64.8901 18.9143L64.6703 18.7645C64.5065 18.642 64.4318 18.4335 64.4805 18.2349L65.9191 11.9905L61.1038 7.85425Z" fill="#FFD855"/>
<path d="M91.1038 7.85425C90.9348 7.73123 90.8626 7.51452 90.9239 7.31473L91.0039 7.06496C91.0623 6.86756 91.238 6.72781 91.4434 6.71527L97.8273 6.20573L100.275 0.321007C100.357 0.114853 100.563 -0.0144568 100.784 0.00129377H101.044C101.253 -0.00313381 101.441 0.12523 101.514 0.321007L103.971 6.20573L110.355 6.71527C110.561 6.72781 110.736 6.86756 110.795 7.06496L110.875 7.31473C110.943 7.50821 110.883 7.72355 110.725 7.85425L105.909 11.9905L107.388 18.195C107.437 18.3936 107.362 18.6021 107.198 18.7245L106.908 18.8844C106.739 18.9986 106.518 18.9986 106.349 18.8844L100.914 15.5873L95.4496 18.9143C95.2806 19.0286 95.0591 19.0286 94.8901 18.9143L94.6703 18.7645C94.5065 18.642 94.4318 18.4335 94.4805 18.2349L95.9191 11.9905L91.1038 7.85425Z" fill="#FFD855"/>
<path fill-rule="evenodd" clip-rule="evenodd" d="M140.795 7.07011L140.875 7.32011C140.941 7.5088 140.885 7.71852 140.735 7.85011L135.889 12.0001L137.325 18.2201C137.373 18.4189 137.299 18.6276 137.135 18.7501L136.916 18.9001C136.831 18.9671 136.725 19.0024 136.617 19.0001C136.525 19.0021 136.436 18.9778 136.358 18.9301L130.903 15.6001L125.477 18.9301C125.399 18.9778 125.31 19.0021 125.218 19.0001C125.11 19.0024 125.004 18.9671 124.919 18.9001L124.67 18.7501C124.506 18.6276 124.432 18.4189 124.48 18.2201L125.916 12.0001L121.08 7.86011C120.922 7.72929 120.862 7.51376 120.93 7.32011L121.04 7.07011C121.098 6.87254 121.273 6.73266 121.478 6.72011L127.851 6.21011L130.294 0.320111C130.373 0.124506 130.563 -0.00265616 130.773 0.000111124H131.032C131.24 -0.00432043 131.429 0.124159 131.501 0.320111L133.984 6.21011L140.357 6.72011C140.562 6.73266 140.737 6.87254 140.795 7.07011ZM135.011 16.0602L133.894 11.3802L137.554 8.25016L132.757 7.87016L130.902 3.41016V13.5502L135.011 16.0602Z" fill="#FFD855"/>
</svg>
