<svg width="70" height="70" viewBox="0 0 70 70" fill="none" xmlns="http://www.w3.org/2000/svg">
<path opacity="0.15" d="M60 0H10C4.47715 0 0 4.47715 0 10V60C0 65.5229 4.47715 70 10 70H60C65.5229 70 70 65.5229 70 60V10C70 4.47715 65.5229 0 60 0Z" fill="#53B175"/>
<path d="M45.42 28.875H26.063C25.8524 28.8676 25.653 28.7788 25.5066 28.6272C25.3603 28.4756 25.2785 28.2732 25.2785 28.0625C25.2785 27.8518 25.3603 27.6493 25.5066 27.4978C25.653 27.3462 25.8524 27.2574 26.063 27.25H45.563C45.6697 27.2501 45.7754 27.2292 45.874 27.1885C45.9727 27.1477 46.0623 27.0879 46.1378 27.0125C46.2133 26.9371 46.2732 26.8475 46.3141 26.7489C46.355 26.6504 46.376 26.5447 46.376 26.438C46.376 26.1179 46.313 25.801 46.1905 25.5054C46.068 25.2097 45.8885 24.9411 45.6622 24.7148C45.4359 24.4885 45.1673 24.309 44.8716 24.1865C44.5759 24.064 44.259 24.001 43.939 24.001H25.25C24.3882 24.001 23.5617 24.3432 22.9523 24.9525C22.3428 25.5618 22.0003 26.3882 22 27.25V43.5C22 44.3619 22.3424 45.1886 22.9519 45.7981C23.5614 46.4076 24.388 46.75 25.25 46.75H45.42C46.085 46.7677 46.7299 46.5212 47.2134 46.0645C47.697 45.6077 47.9799 44.9779 48 44.313V31.313C47.9801 30.6479 47.6974 30.0178 47.2138 29.5608C46.7302 29.1038 46.0851 28.8572 45.42 28.875ZM43.12 39.438C42.7986 39.438 42.4844 39.3427 42.2172 39.1641C41.95 38.9856 41.7417 38.7318 41.6187 38.4348C41.4957 38.1379 41.4635 37.8112 41.5262 37.496C41.5889 37.1807 41.7437 36.8912 41.971 36.6639C42.1982 36.4367 42.4878 36.2819 42.803 36.2192C43.1182 36.1565 43.4449 36.1887 43.7419 36.3117C44.0388 36.4347 44.2926 36.6429 44.4711 36.9102C44.6497 37.1774 44.745 37.4916 44.745 37.813C44.745 38.2431 44.5745 38.6557 44.2708 38.9603C43.9672 39.2649 43.5551 39.4367 43.125 39.438H43.12Z" fill="#53B175"/>
</svg>
